<?xml version="1.0" encoding="UTF-8" standalone="no"?>
<!DOCTYPE svg PUBLIC "-//W3C//DTD SVG 1.1//EN" "http://www.w3.org/Graphics/SVG/1.1/DTD/svg11.dtd">
<svg width="100%" height="100%" viewBox="0 0 301 300" version="1.1" xmlns="http://www.w3.org/2000/svg" xmlns:xlink="http://www.w3.org/1999/xlink" xml:space="preserve" xmlns:serif="http://www.serif.com/" style="fill-rule:evenodd;clip-rule:evenodd;stroke-linecap:round;stroke-linejoin:round;stroke-miterlimit:1.5;">
    <rect id="_1" serif:id="1" x="0.53" y="0" width="300" height="300" style="fill:none;"/>
    <path d="M204.888,223.204C192.221,231.131 177.274,235.711 161.274,235.711C116.326,235.711 79.686,199.568 78.574,154.601C75.045,155.227 71.213,155.777 67.061,156.236C43.522,158.837 22.525,156.227 22.525,156.227C22.362,156.206 22.2,156.18 22.038,156.147C7.111,153.087 1.576,143.774 1.421,134.997C1.207,122.893 12.065,110.462 27.048,112.386C37.932,98.017 56.072,93.4 69.012,96.79C77.323,98.967 83.674,104.149 85.874,111.884C86.996,111.754 88.107,111.674 89.202,111.64C103.407,86.359 130.378,69.282 161.274,69.282C206.92,69.282 244,106.558 244,152.496C244,177.658 232.875,200.221 215.312,215.484C217.746,214.727 220.42,214.427 223.271,214.718C232.695,202.692 248.099,198.867 259.12,201.753C266.158,203.597 271.586,207.896 273.718,214.279C280.047,213.709 285.899,214.949 290.243,217.176C295.369,219.803 298.539,223.859 299.393,228.076C300.297,232.539 299.007,237.747 293.237,242.411C287.648,246.928 276.536,251.404 257.34,253.526C237.504,255.718 219.811,253.516 219.811,253.516C219.647,253.496 219.485,253.469 219.324,253.436C206.184,250.742 201.384,242.474 201.247,234.748C201.176,230.71 202.499,226.627 204.888,223.204ZM83.14,125.108C82.848,125.188 82.556,125.273 82.264,125.363C80.303,125.968 78.17,125.571 76.557,124.302C74.944,123.032 74.057,121.052 74.185,119.003C74.526,113.511 70.769,110.172 65.844,108.882C56.156,106.344 42.391,110.62 35.211,122.603C33.722,125.088 30.721,126.224 27.96,125.348C20.072,122.847 13.812,128.715 13.919,134.776C13.992,138.889 17.385,142.365 24.294,143.848L24.31,143.851C26.647,144.118 45.13,146.084 65.688,143.812C70.73,143.255 75.23,142.575 79.227,141.793C84.487,140.763 88.876,139.554 92.484,138.213C94.897,137.315 96.961,136.358 98.702,135.354C100.639,134.237 102.098,133.111 103.069,131.927C103.691,131.169 104.118,130.485 103.973,129.773C103.664,128.248 102.087,127.188 100.233,126.238C99.144,125.68 97.93,125.218 96.618,124.868C92.73,123.831 87.99,123.777 83.14,125.108ZM91.051,151.753C91.049,152.001 91.048,152.248 91.048,152.496C91.048,191.514 122.504,223.211 161.274,223.211C200.043,223.211 231.5,191.514 231.5,152.496C231.5,113.479 200.043,81.782 161.274,81.782C136.747,81.782 115.147,94.467 102.587,113.666C103.771,114.093 104.89,114.579 105.934,115.113C111.677,118.057 115.268,122.568 116.225,127.291C117.231,132.261 115.725,138.032 109.299,143.226C105.537,146.267 99.64,149.272 91.051,151.753ZM221.583,241.138L221.593,241.14C223.696,241.378 238.98,242.978 255.967,241.101C269.266,239.632 277.999,237.156 283.216,234.148C284.711,233.286 285.845,232.428 286.595,231.514C286.889,231.157 287.21,230.894 287.142,230.558C286.935,229.537 285.782,228.936 284.542,228.3C280.957,226.462 275.657,225.97 270.259,227.634C268.298,228.239 266.164,227.843 264.551,226.573C262.939,225.304 262.052,223.323 262.179,221.275C262.431,217.215 259.592,214.799 255.952,213.846C248.191,211.813 237.182,215.275 231.43,224.874C229.941,227.359 226.941,228.495 224.18,227.62C218.343,225.769 213.666,230.042 213.745,234.527C213.799,237.592 216.451,240.026 221.583,241.138Z"/>
    <path d="M232.789,89.676L255.938,73.035" style="fill:none;stroke:black;stroke-width:12.5px;"/>
    <path d="M188.97,62.219L196.411,37.257" style="fill:none;stroke:black;stroke-width:12.5px;"/>
    <path d="M112.081,236.949L102.986,251.926" style="fill:none;stroke:black;stroke-width:12.5px;"/>
    <path d="M254.285,157.072L273.301,165.393" style="fill:none;stroke:black;stroke-width:12.5px;"/>
    <path d="M182.356,241.942L184.01,261.911" style="fill:none;stroke:black;stroke-width:12.5px;"/>
    <path d="M146.805,243.606L145.978,262.743" style="fill:none;stroke:black;stroke-width:12.5px;"/>
    <path d="M90.585,212.82L56.688,235.285" style="fill:none;stroke:black;stroke-width:12.5px;"/>
    <path d="M74.05,174.545L50.073,180.37" style="fill:none;stroke:black;stroke-width:12.5px;"/>
    <path d="M94.719,86.348L67.435,58.891" style="fill:none;stroke:black;stroke-width:12.5px;"/>
    <path d="M139.364,61.387L135.23,38.921" style="fill:none;stroke:black;stroke-width:12.5px;"/>
</svg>
