<?xml version="1.0" encoding="UTF-8" standalone="no"?>
<!DOCTYPE svg PUBLIC "-//W3C//DTD SVG 1.1//EN" "http://www.w3.org/Graphics/SVG/1.1/DTD/svg11.dtd">
<svg width="100%" height="100%" viewBox="0 0 301 300" version="1.1" xmlns="http://www.w3.org/2000/svg" xmlns:xlink="http://www.w3.org/1999/xlink" xml:space="preserve" xmlns:serif="http://www.serif.com/" style="fill-rule:evenodd;clip-rule:evenodd;stroke-linecap:round;stroke-linejoin:round;stroke-miterlimit:1.5;">
    <rect id="_2" serif:id="2" x="0.53" y="0" width="300" height="300" style="fill:none;"/>
    <path d="M214.282,201.895C239.252,192.971 260.107,196.599 270.855,213.141C281.358,229.305 283.65,241.763 280.164,250.835C276.598,260.113 266.71,266.923 250.212,270.535C231.55,274.622 203.707,275.134 168.049,273.494C72.635,286.885 13.559,272.268 13.559,272.268C12.018,271.89 10.68,270.94 9.814,269.611C-2.36,250.931 -0.862,231.682 9.162,220.433C16.74,211.93 29.692,207.352 46.474,211.563C45.244,207.177 44.688,202.588 44.804,198.055C45.083,187.125 49.276,176.628 56.773,170.002C61.375,165.936 67.313,163.138 74.52,162.67C72.841,156.119 71.948,149.259 71.948,142.195C71.948,96.342 109.547,59.082 155.899,59.082C198.87,59.082 234.318,91.105 239.26,132.309C245.987,129.97 252.99,129.649 258.796,131.144C265.939,132.983 271.429,137.291 273.584,143.669C280.018,143.078 285.971,144.31 290.384,146.533C295.586,149.154 298.795,153.218 299.662,157.424C300.583,161.894 299.287,167.13 293.406,171.802C287.741,176.302 276.473,180.758 257.016,182.872C246.09,184.058 235.805,183.954 228.684,183.611C224.756,190.359 219.897,196.511 214.282,201.895ZM227.284,139.151C225.668,101.571 194.284,71.582 155.899,71.582C116.483,71.582 84.448,103.204 84.448,142.195C84.448,149.926 85.708,157.368 88.035,164.33C90.706,165.113 93.494,166.177 96.399,167.555C98.455,159.618 102.026,153.826 106.342,149.775C118.342,138.512 136.943,140.083 150.613,149.357C158.747,154.875 164.981,162.934 167.09,172.119C169.122,171.186 171.219,170.594 173.333,170.285C183.941,168.735 195.852,175.022 203.729,184.11C205.429,186.071 206.933,188.15 208.204,190.28C210.668,187.664 212.933,184.864 214.976,181.902C204.274,178.574 200.273,171.102 200.148,164.111C199.959,153.611 209.369,142.733 222.498,144.108C223.963,142.264 225.571,140.614 227.284,139.151ZM198.633,198.774C197.559,196.544 196.053,194.339 194.283,192.297C189.227,186.464 181.95,181.658 175.141,182.653C171.07,183.248 167.568,186.292 164.889,192.157L153.519,186.964C158.503,176.051 152.414,165.684 143.596,159.701C134.731,153.688 122.679,151.585 114.897,158.889C110.829,162.708 108.128,168.915 107.276,177.854C107.07,180.013 105.759,181.912 103.812,182.869C101.865,183.826 99.561,183.705 97.725,182.549C97.457,182.381 97.191,182.216 96.926,182.054C90.037,177.835 84.003,175.682 78.85,175.223C73.173,174.717 68.563,176.265 65.051,179.369C60.005,183.828 57.488,191.019 57.3,198.374C57.107,205.914 59.387,213.734 64.515,219.286C66.581,221.522 66.735,224.922 64.879,227.336C63.023,229.75 59.698,230.475 57.005,229.053C39.263,219.683 25.581,220.798 18.494,228.75C11.927,236.119 11.839,248.404 18.976,260.661C30.817,263.098 85.162,272.583 166.88,261.035C167.266,260.981 167.656,260.962 168.046,260.98C202.568,262.588 229.514,262.271 247.538,258.325C258.646,255.893 266.095,252.598 268.496,246.351C269.567,243.562 269.45,240.287 268.423,236.467C267.132,231.664 264.434,226.201 260.373,219.951C255.919,213.097 248.904,209.845 240.359,209.549C230.499,209.208 218.826,212.586 206.277,218.982C203.556,220.37 200.231,219.587 198.414,217.131C197.824,216.333 197.449,215.434 197.285,214.509C196.944,212.587 197.513,210.552 198.946,209.07C200.514,207.448 200.584,205.201 200.083,202.884C199.789,201.526 199.293,200.145 198.633,198.774ZM234.545,171.309C240.54,171.428 247.929,171.285 255.666,170.445C269.212,168.973 278.105,166.492 283.419,163.48C284.947,162.614 286.106,161.752 286.873,160.834C287.155,160.496 287.485,160.264 287.419,159.947C287.208,158.923 286.027,158.335 284.76,157.697C281.082,155.844 275.645,155.343 270.106,157.022C268.146,157.616 266.019,157.212 264.413,155.94C262.807,154.669 261.926,152.691 262.055,150.647C262.312,146.584 259.385,144.203 255.679,143.249C250.949,142.031 245.032,142.765 239.78,145.601C236.225,147.521 232.975,150.403 230.603,154.294C229.527,156.059 227.684,157.133 225.714,157.275C224.951,157.33 224.17,157.246 223.407,157.008C217.416,155.141 212.564,159.362 212.646,163.887C212.701,166.965 215.429,169.367 220.676,170.48L220.686,170.482C220.838,170.499 221.059,170.523 221.346,170.552C223.262,170.748 228.096,171.181 234.545,171.309Z"/>
    <path d="M228.559,79.458L252.079,62.839" style="fill:none;stroke:black;stroke-width:12.5px;"/>
    <path d="M184.039,52.037L191.599,27.108" style="fill:none;stroke:black;stroke-width:12.5px;"/>
    <path d="M67.278,164.215L42.918,170.031" style="fill:none;stroke:black;stroke-width:12.5px;"/>
    <path d="M63.918,130.146L40.398,121.836" style="fill:none;stroke:black;stroke-width:12.5px;"/>
    <path d="M88.279,76.134L60.558,48.713" style="fill:none;stroke:black;stroke-width:12.5px;"/>
    <path d="M133.639,51.206L129.439,28.77" style="fill:none;stroke:black;stroke-width:12.5px;"/>
</svg>
