<?xml version="1.0" encoding="UTF-8" standalone="no"?>
<!DOCTYPE svg PUBLIC "-//W3C//DTD SVG 1.1//EN" "http://www.w3.org/Graphics/SVG/1.1/DTD/svg11.dtd">
<svg width="100%" height="100%" viewBox="0 0 301 300" version="1.1" xmlns="http://www.w3.org/2000/svg" xmlns:xlink="http://www.w3.org/1999/xlink" xml:space="preserve" xmlns:serif="http://www.serif.com/" style="fill-rule:evenodd;clip-rule:evenodd;stroke-linecap:round;stroke-linejoin:round;stroke-miterlimit:1.5;">
    <rect id="_3" serif:id="3" x="0.53" y="0" width="300" height="300" style="fill:none;"/>
    <path d="M276.059,187.825C276.249,188.105 276.437,188.389 276.622,188.678C287.289,205.324 289.653,218.138 286.113,227.479C282.482,237.059 272.402,244.051 255.604,247.78C236.529,252.015 208.072,252.545 171.626,250.845C74.103,264.723 13.721,249.577 13.721,249.577C12.175,249.192 10.835,248.231 9.974,246.891C-2.386,227.659 -0.89,207.843 9.289,196.263C17.054,187.427 30.352,182.706 47.585,187.172C46.263,182.545 45.664,177.688 45.785,172.893C46.069,161.64 50.328,150.83 57.941,144.009C61.626,140.708 66.151,138.217 71.483,137.066C72.847,133.163 74.659,128.981 76.951,124.509C86.054,106.752 103.63,102.828 124.726,112.268C125.452,106.358 128.048,99.969 131.818,94.456C138.618,84.512 149.212,77.981 158.369,79.677C159.608,79.906 160.854,80.275 162.087,80.806C163.62,73.302 167.33,66.576 172.192,61.368C178.453,54.665 186.615,50.55 194.444,50.16C205.692,49.601 217.512,56.258 221.849,75.954C231.788,70.626 240.149,70.813 246.614,73.82C254.401,77.441 260.008,85.657 262.573,95.806C264.644,104.003 264.729,113.391 262.797,122C272.692,119.32 280.976,121.186 287.124,125.603C300.315,135.08 304.753,158.728 292.954,181.68C292.187,183.171 290.854,184.291 289.253,184.789C289.253,184.789 284.675,186.23 276.059,187.825ZM74.772,149.194C73.698,149.387 72.67,149.669 71.687,150.034C65.675,152.271 61.778,157.641 59.798,163.91C56.571,174.125 58.287,186.913 65.722,195.075C67.772,197.325 67.903,200.724 66.033,203.125C64.163,205.526 60.835,206.231 58.152,204.794C39.966,195.057 25.941,196.251 18.678,204.515C11.886,212.242 11.775,225.136 19.183,237.989C31.189,240.499 86.785,250.374 170.441,238.388C170.832,238.332 171.228,238.313 171.622,238.331C206.918,239.997 234.466,239.669 252.895,235.577C264.313,233.043 271.956,229.561 274.424,223.049C276.982,216.301 273.803,207.447 266.097,195.422C262.2,189.341 256.399,185.969 249.341,184.913C248.112,184.729 246.846,184.616 245.545,184.57C241.887,184.442 237.985,184.821 233.885,185.672C226.677,187.169 218.858,190.126 210.674,194.356C207.961,195.758 204.633,194.995 202.802,192.552C201.089,190.265 201.156,187.133 202.899,184.93C203.018,184.779 203.146,184.632 203.281,184.491C204.949,182.741 205.038,180.323 204.505,177.824C203.709,174.09 201.473,170.188 198.522,166.735C193.329,160.661 185.862,155.659 178.87,156.695C174.664,157.318 171.053,160.504 168.285,166.648L156.888,161.513C161.355,151.598 157.217,142.059 150.131,135.65C142.778,128.999 132.166,125.349 123.419,128.341C116.023,130.872 110.644,138.355 109.368,151.917C109.164,154.086 107.846,155.992 105.889,156.948C103.932,157.904 101.619,157.772 99.783,156.6C89.694,150.161 81.373,148.008 74.772,149.194ZM264.406,177.033C273.455,175.784 279.765,174.363 283.01,173.542C287.325,164.048 288.381,154.549 286.569,146.913C285.443,142.167 283.217,138.187 279.831,135.755C273.904,131.496 265.11,132.471 254.179,139.788C251.661,141.474 248.296,141.11 246.196,138.925C244.096,136.74 243.866,133.363 245.651,130.914C251.767,122.521 253.108,109.371 250.454,98.868C248.899,92.717 246.062,87.349 241.343,85.154C236.207,82.765 229.544,84.685 220.969,91.528C219.158,92.972 216.697,93.297 214.573,92.371C212.45,91.446 211.012,89.421 210.839,87.111C209.526,69.666 203.27,62.237 195.066,62.645C190.184,62.888 185.232,65.72 181.328,69.9C175.145,76.521 171.601,86.723 175.403,97.272L163.643,101.51C161.567,95.748 159.246,92.552 156.092,91.968C153.993,91.579 151.847,92.46 149.776,93.78C146.921,95.6 144.285,98.37 142.136,101.512C139.721,105.044 137.914,109.061 137.263,112.882C137.107,113.793 137.007,114.692 136.994,115.558C144.803,117.063 152.453,120.895 158.516,126.379C164.482,131.776 168.891,138.655 170.566,146.278C172.671,145.283 174.845,144.654 177.038,144.33C187.848,142.728 199.995,149.222 208.023,158.613C213.075,164.523 216.427,171.46 217.14,177.745C235.837,170.581 252.38,170.287 264.406,177.033ZM111.338,120.714C101.178,118.24 92.89,120.817 88.075,130.211C86.862,132.577 85.79,134.829 84.866,136.971C89.075,137.723 93.608,139.199 98.458,141.541C100.923,131.658 105.613,124.947 111.338,120.714Z"/>
    <path d="M43.421,91.215C43.421,91.215 61.084,93.396 80.887,91.215C141.158,84.577 117.945,57.029 93.104,64.664C94.293,45.567 61.854,43.487 49.122,64.664C30.831,58.884 19.517,86.331 43.421,91.215Z" style="fill:none;stroke:black;stroke-width:12.5px;"/>
</svg>
