<?xml version="1.0" encoding="UTF-8" standalone="no"?>
<!DOCTYPE svg PUBLIC "-//W3C//DTD SVG 1.1//EN" "http://www.w3.org/Graphics/SVG/1.1/DTD/svg11.dtd">
<svg width="100%" height="100%" viewBox="0 0 301 300" version="1.1" xmlns="http://www.w3.org/2000/svg" xmlns:xlink="http://www.w3.org/1999/xlink" xml:space="preserve" xmlns:serif="http://www.serif.com/" style="fill-rule:evenodd;clip-rule:evenodd;stroke-linecap:round;stroke-linejoin:round;stroke-miterlimit:1.5;">
    <rect id="_45" serif:id="45" x="0.53" y="0" width="300" height="300" style="fill:none;"/>
    <path d="M277.297,149.252C289.395,141.148 300.588,119.103 286.688,98.87C274.622,81.306 249.088,81.47 219.625,95.675C235.987,79.669 189.083,35.783 171.911,71.339C189.083,35.783 114.778,3.364 109.19,58.79C60.013,29.508 42.473,83.103 64.826,105.992C19.002,83.103 -5.802,117.268 16.424,149.528" style="fill:none;stroke:black;stroke-width:12.5px;"/>
    <path d="M273.178,238.847C275.478,238.847 277.345,240.714 277.345,243.014C277.345,245.314 275.478,247.181 273.178,247.181L202.178,247.181C199.878,247.181 198.011,245.314 198.011,243.014C198.011,240.714 199.878,238.847 202.178,238.847L273.178,238.847Z"/>
    <path d="M293.53,17.833C295.83,17.833 297.697,19.7 297.697,22C297.697,24.3 295.83,26.167 293.53,26.167L222.53,26.167C220.231,26.167 218.364,24.3 218.364,22C218.364,19.7 220.231,17.833 222.53,17.833L293.53,17.833Z"/>
    <path d="M260.372,34.519C262.671,34.519 264.538,36.386 264.538,38.686C264.538,40.985 262.671,42.852 260.372,42.852L208.372,42.852C206.072,42.852 204.205,40.985 204.205,38.686C204.205,36.386 206.072,34.519 208.372,34.519L260.372,34.519Z"/>
    <path d="M94.53,14.833C96.83,14.833 98.697,16.7 98.697,19C98.697,21.3 96.83,23.167 94.53,23.167L11.53,23.167C9.231,23.167 7.364,21.3 7.364,19C7.364,16.7 9.231,14.833 11.53,14.833L94.53,14.833Z"/>
    <path d="M290.9,51.258C293.199,51.258 295.066,53.125 295.066,55.424C295.066,57.724 293.199,59.591 290.9,59.591L238.9,59.591C236.6,59.591 234.733,57.724 234.733,55.424C234.733,53.125 236.6,51.258 238.9,51.258L290.9,51.258Z"/>
    <path d="M220.372,135.693C222.672,135.693 224.539,137.56 224.539,139.86C224.539,142.159 222.672,144.026 220.372,144.026L68.372,144.026C66.072,144.026 64.205,142.159 64.205,139.86C64.205,137.56 66.072,135.693 68.372,135.693L220.372,135.693Z"/>
    <path d="M108.078,152.159C110.378,152.159 112.245,154.026 112.245,156.326C112.245,158.626 110.378,160.493 108.078,160.493L49.078,160.493C46.778,160.493 44.911,158.626 44.911,156.326C44.911,154.026 46.778,152.159 49.078,152.159L108.078,152.159Z"/>
    <path d="M197.696,152.188C199.996,152.188 201.863,154.055 201.863,156.354C201.863,158.654 199.996,160.521 197.696,160.521L138.696,160.521C136.396,160.521 134.529,158.654 134.529,156.354C134.529,154.055 136.396,152.188 138.696,152.188L197.696,152.188Z"/>
    <path d="M164.517,168.862C166.817,168.862 168.684,170.729 168.684,173.029C168.684,175.328 166.817,177.195 164.517,177.195L64.517,177.195C62.217,177.195 60.35,175.328 60.35,173.029C60.35,170.729 62.217,168.862 64.517,168.862L164.517,168.862Z"/>
    <path d="M79.516,185.33C81.815,185.33 83.682,187.197 83.682,189.497C83.682,191.796 81.815,193.663 79.516,193.663L17.516,193.663C15.216,193.663 13.349,191.796 13.349,189.497C13.349,187.197 15.216,185.33 17.516,185.33L79.516,185.33Z"/>
    <path d="M134.622,201.885C136.921,201.885 138.788,203.752 138.788,206.051C138.788,208.351 136.921,210.218 134.622,210.218L38.622,210.218C36.322,210.218 34.455,208.351 34.455,206.051C34.455,203.752 36.322,201.885 38.622,201.885L134.622,201.885Z"/>
    <path d="M114.498,268.882C116.797,268.882 118.664,270.749 118.664,273.049C118.664,275.348 116.797,277.215 114.498,277.215L18.498,277.215C16.198,277.215 14.331,275.348 14.331,273.049C14.331,270.749 16.198,268.882 18.498,268.882L114.498,268.882Z"/>
    <path d="M49.506,253.208C51.806,253.208 53.673,255.075 53.673,257.375C53.673,259.674 51.806,261.541 49.506,261.541L26.506,261.541C24.207,261.541 22.34,259.674 22.34,257.375C22.34,255.075 24.207,253.208 26.506,253.208L49.506,253.208Z"/>
    <path d="M212.506,222.208C214.806,222.208 216.673,224.075 216.673,226.375C216.673,228.674 214.806,230.541 212.506,230.541L189.506,230.541C187.207,230.541 185.34,228.674 185.34,226.375C185.34,224.075 187.207,222.208 189.506,222.208L212.506,222.208Z"/>
    <path d="M44.367,31.293C46.667,31.293 48.534,33.16 48.534,35.46C48.534,37.759 46.667,39.627 44.367,39.627L15.367,39.627C13.068,39.627 11.201,37.759 11.201,35.46C11.201,33.16 13.068,31.293 15.367,31.293L44.367,31.293Z"/>
    <path d="M47.34,47.94C49.639,47.94 51.506,49.807 51.506,52.106C51.506,54.406 49.639,56.273 47.34,56.273L26.34,56.273C24.04,56.273 22.173,54.406 22.173,52.106C22.173,49.807 24.04,47.94 26.34,47.94L47.34,47.94Z"/>
    <path d="M269.704,255.63C272.003,255.63 273.87,257.497 273.87,259.796C273.87,262.096 272.003,263.963 269.704,263.963L228.704,263.963C226.404,263.963 224.537,262.096 224.537,259.796C224.537,257.497 226.404,255.63 228.704,255.63L269.704,255.63Z"/>
    <path d="M235.746,272.179C238.046,272.179 239.913,274.046 239.913,276.346C239.913,278.645 238.046,280.512 235.746,280.512L194.746,280.512C192.447,280.512 190.58,278.645 190.58,276.346C190.58,274.046 192.447,272.179 194.746,272.179L235.746,272.179Z"/>
</svg>
