<?xml version="1.0" encoding="UTF-8" standalone="no"?>
<!DOCTYPE svg PUBLIC "-//W3C//DTD SVG 1.1//EN" "http://www.w3.org/Graphics/SVG/1.1/DTD/svg11.dtd">
<svg width="100%" height="100%" viewBox="0 0 301 300" version="1.1" xmlns="http://www.w3.org/2000/svg" xmlns:xlink="http://www.w3.org/1999/xlink" xml:space="preserve" xmlns:serif="http://www.serif.com/" style="fill-rule:evenodd;clip-rule:evenodd;stroke-linecap:round;stroke-linejoin:round;stroke-miterlimit:1.5;">
    <rect id="_48" serif:id="48" x="0.507" y="0" width="300" height="300" style="fill:none;"/>
    <g>
        <path d="M245.392,163.996L245.392,215.996" style="fill:none;stroke:black;stroke-width:4.17px;"/>
        <path d="M273.35,190.056L217.35,190.056" style="fill:none;stroke:black;stroke-width:4.17px;"/>
        <path d="M262.502,172.821L228.137,207.186" style="fill:none;stroke:black;stroke-width:4.17px;"/>
        <path d="M226.412,171.069L264.3,208.957" style="fill:none;stroke:black;stroke-width:4.17px;"/>
    </g>
    <g>
        <path d="M142.148,227.719L142.148,268.985" style="fill:none;stroke:black;stroke-width:4.17px;"/>
        <path d="M164.335,248.401L119.894,248.401" style="fill:none;stroke:black;stroke-width:4.17px;"/>
        <path d="M155.726,234.723L128.455,261.995" style="fill:none;stroke:black;stroke-width:4.17px;"/>
        <path d="M127.086,233.333L157.153,263.4" style="fill:none;stroke:black;stroke-width:4.17px;"/>
    </g>
    <g>
        <path d="M138.988,68.205L138.988,115.831" style="fill:none;stroke:black;stroke-width:4.17px;"/>
        <path d="M164.595,92.073L113.304,92.073" style="fill:none;stroke:black;stroke-width:4.17px;"/>
        <path d="M154.66,76.288L123.184,107.763" style="fill:none;stroke:black;stroke-width:4.17px;"/>
        <path d="M121.604,74.683L156.306,109.385" style="fill:none;stroke:black;stroke-width:4.17px;"/>
    </g>
    <g>
        <path d="M155.479,147.9L155.479,195.527" style="fill:none;stroke:black;stroke-width:4.17px;"/>
        <path d="M181.086,171.769L129.795,171.769" style="fill:none;stroke:black;stroke-width:4.17px;"/>
        <path d="M171.151,155.983L139.675,187.458" style="fill:none;stroke:black;stroke-width:4.17px;"/>
        <path d="M138.095,154.379L172.797,189.08" style="fill:none;stroke:black;stroke-width:4.17px;"/>
    </g>
    <g>
        <path d="M52.41,179.784L52.41,227.411" style="fill:none;stroke:black;stroke-width:4.17px;"/>
        <path d="M78.016,203.653L26.725,203.653" style="fill:none;stroke:black;stroke-width:4.17px;"/>
        <path d="M68.081,187.868L36.606,219.343" style="fill:none;stroke:black;stroke-width:4.17px;"/>
        <path d="M35.026,186.263L69.727,220.964" style="fill:none;stroke:black;stroke-width:4.17px;"/>
    </g>
    <path d="M277.273,149.252C289.371,141.148 300.564,119.103 286.665,98.87C274.599,81.306 249.064,81.47 219.601,95.675C235.963,79.669 189.059,35.783 171.888,71.339C189.059,35.783 114.755,3.364 109.166,58.79C59.989,29.508 42.449,83.103 64.802,105.992C18.978,83.103 -5.826,117.268 16.4,149.528" style="fill:none;stroke:black;stroke-width:12.5px;"/>
    <path d="M273.154,238.847C275.454,238.847 277.321,240.714 277.321,243.014C277.321,245.314 275.454,247.181 273.154,247.181L202.154,247.181C199.855,247.181 197.988,245.314 197.988,243.014C197.988,240.714 199.855,238.847 202.154,238.847L273.154,238.847Z"/>
    <path d="M293.507,17.833C295.806,17.833 297.673,19.7 297.673,22C297.673,24.3 295.806,26.167 293.507,26.167L222.507,26.167C220.207,26.167 218.34,24.3 218.34,22C218.34,19.7 220.207,17.833 222.507,17.833L293.507,17.833Z"/>
    <path d="M260.348,34.519C262.648,34.519 264.515,36.386 264.515,38.686C264.515,40.985 262.648,42.852 260.348,42.852L208.348,42.852C206.048,42.852 204.181,40.985 204.181,38.686C204.181,36.386 206.048,34.519 208.348,34.519L260.348,34.519Z"/>
    <path d="M94.507,14.833C96.806,14.833 98.673,16.7 98.673,19C98.673,21.3 96.806,23.167 94.507,23.167L11.507,23.167C9.207,23.167 7.34,21.3 7.34,19C7.34,16.7 9.207,14.833 11.507,14.833L94.507,14.833Z"/>
    <path d="M290.876,51.258C293.176,51.258 295.043,53.125 295.043,55.424C295.043,57.724 293.176,59.591 290.876,59.591L238.876,59.591C236.577,59.591 234.709,57.724 234.709,55.424C234.709,53.125 236.577,51.258 238.876,51.258L290.876,51.258Z"/>
    <path d="M220.348,135.693C222.648,135.693 224.515,137.56 224.515,139.86C224.515,142.159 222.648,144.026 220.348,144.026L68.348,144.026C66.049,144.026 64.182,142.159 64.182,139.86C64.182,137.56 66.049,135.693 68.348,135.693L220.348,135.693Z"/>
    <path d="M108.054,152.159C110.354,152.159 112.221,154.026 112.221,156.326C112.221,158.626 110.354,160.493 108.054,160.493L49.054,160.493C46.755,160.493 44.888,158.626 44.888,156.326C44.888,154.026 46.755,152.159 49.054,152.159L108.054,152.159Z"/>
    <path d="M197.672,152.188C199.972,152.188 201.839,154.055 201.839,156.354C201.839,158.654 199.972,160.521 197.672,160.521L183.248,160.521C180.949,160.521 179.082,158.654 179.082,156.354C179.082,154.055 180.949,152.188 183.248,152.188L197.672,152.188Z"/>
    <path d="M118.476,168.862C120.776,168.862 122.643,170.729 122.643,173.029C122.643,175.328 120.776,177.195 118.476,177.195L64.493,177.195C62.194,177.195 60.327,175.328 60.327,173.029C60.327,170.729 62.194,168.862 64.493,168.862L118.476,168.862Z"/>
    <path d="M27.178,185.33C29.478,185.33 31.345,187.197 31.345,189.497C31.345,191.796 29.478,193.663 27.178,193.663L10.777,193.663C8.477,193.663 6.61,191.796 6.61,189.497C6.61,187.197 8.477,185.33 10.777,185.33L27.178,185.33Z"/>
    <path d="M134.598,201.885C136.898,201.885 138.765,203.752 138.765,206.051C138.765,208.351 136.898,210.218 134.598,210.218L87.234,210.218C84.934,210.218 83.067,208.351 83.067,206.051C83.067,203.752 84.934,201.885 87.234,201.885L134.598,201.885Z"/>
    <path d="M114.474,268.882C116.774,268.882 118.641,270.749 118.641,273.049C118.641,275.348 116.774,277.215 114.474,277.215L18.474,277.215C16.174,277.215 14.307,275.348 14.307,273.049C14.307,270.749 16.174,268.882 18.474,268.882L114.474,268.882Z"/>
    <path d="M49.483,253.208C51.782,253.208 53.649,255.075 53.649,257.375C53.649,259.674 51.782,261.541 49.483,261.541L26.483,261.541C24.183,261.541 22.316,259.674 22.316,257.375C22.316,255.075 24.183,253.208 26.483,253.208L49.483,253.208Z"/>
    <path d="M212.483,222.208C214.782,222.208 216.649,224.075 216.649,226.375C216.649,228.674 214.782,230.541 212.483,230.541L189.483,230.541C187.183,230.541 185.316,228.674 185.316,226.375C185.316,224.075 187.183,222.208 189.483,222.208L212.483,222.208Z"/>
    <path d="M44.344,31.293C46.643,31.293 48.51,33.16 48.51,35.46C48.51,37.759 46.643,39.627 44.344,39.627L15.344,39.627C13.044,39.627 11.177,37.759 11.177,35.46C11.177,33.16 13.044,31.293 15.344,31.293L44.344,31.293Z"/>
    <path d="M47.316,47.94C49.616,47.94 51.483,49.807 51.483,52.106C51.483,54.406 49.616,56.273 47.316,56.273L26.316,56.273C24.016,56.273 22.149,54.406 22.149,52.106C22.149,49.807 24.016,47.94 26.316,47.94L47.316,47.94Z"/>
    <path d="M269.68,255.63C271.98,255.63 273.847,257.497 273.847,259.796C273.847,262.096 271.98,263.963 269.68,263.963L228.68,263.963C226.38,263.963 224.513,262.096 224.513,259.796C224.513,257.497 226.38,255.63 228.68,255.63L269.68,255.63Z"/>
    <path d="M235.723,272.179C238.022,272.179 239.889,274.046 239.889,276.346C239.889,278.645 238.022,280.512 235.723,280.512L194.723,280.512C192.423,280.512 190.556,278.645 190.556,276.346C190.556,274.046 192.423,272.179 194.723,272.179L235.723,272.179Z"/>
</svg>
