<?xml version="1.0" encoding="UTF-8" standalone="no"?>
<!DOCTYPE svg PUBLIC "-//W3C//DTD SVG 1.1//EN" "http://www.w3.org/Graphics/SVG/1.1/DTD/svg11.dtd">
<svg width="100%" height="100%" viewBox="0 0 301 300" version="1.1" xmlns="http://www.w3.org/2000/svg" xmlns:xlink="http://www.w3.org/1999/xlink" xml:space="preserve" xmlns:serif="http://www.serif.com/" style="fill-rule:evenodd;clip-rule:evenodd;stroke-linecap:round;stroke-linejoin:round;stroke-miterlimit:1.5;">
    <rect id="_51" serif:id="51" x="0.53" y="0" width="300" height="300" style="fill:none;"/>
    <circle cx="169.14" cy="147.926" r="2.047"/>
    <circle cx="69.775" cy="214.348" r="2.047"/>
    <circle cx="181.32" cy="165.377" r="2.047"/>
    <circle cx="189.271" cy="248.35" r="2.047"/>
    <circle cx="65.503" cy="145.143" r="2.047"/>
    <path d="M277.297,149.252C289.395,141.148 300.588,119.103 286.688,98.87C274.622,81.306 249.088,81.47 219.625,95.675C235.987,79.669 189.083,35.783 171.911,71.339C189.083,35.783 114.778,3.364 109.19,58.79C60.013,29.508 42.473,83.103 64.826,105.992C19.002,83.103 -5.802,117.268 16.424,149.528" style="fill:none;stroke:black;stroke-width:12.5px;"/>
    <circle cx="101.022" cy="214.618" r="2.047"/>
    <circle cx="208.536" cy="166.039" r="2.047"/>
    <circle cx="92.718" cy="145.805" r="2.047"/>
    <circle cx="242.648" cy="164.505" r="2.047"/>
    <circle cx="250.599" cy="235.595" r="2.047"/>
    <circle cx="126.831" cy="144.27" r="2.047"/>
    <circle cx="141.657" cy="237.668" r="2.047"/>
    <circle cx="257.635" cy="181.956" r="2.047"/>
    <circle cx="265.586" cy="253.047" r="2.047"/>
    <circle cx="111.363" cy="236.535" r="2.047"/>
    <circle cx="227.341" cy="180.824" r="2.047"/>
    <circle cx="235.292" cy="251.914" r="2.047"/>
    <circle cx="111.523" cy="160.59" r="2.047"/>
    <circle cx="83.341" cy="249.209" r="2.047"/>
    <circle cx="199.319" cy="193.498" r="2.047"/>
    <circle cx="207.27" cy="264.589" r="2.047"/>
    <circle cx="83.501" cy="173.264" r="2.047"/>
    <circle cx="58.574" cy="242.007" r="2.047"/>
    <circle cx="164.516" cy="257.387" r="2.047"/>
    <circle cx="58.735" cy="166.062" r="2.047"/>
    <circle cx="42.042" cy="265.635" r="2.047"/>
    <circle cx="158.02" cy="209.924" r="2.047"/>
    <circle cx="165.971" cy="281.014" r="2.047"/>
    <circle cx="42.203" cy="189.69" r="2.047"/>
    <circle cx="72.304" cy="278.498" r="2.047"/>
    <circle cx="190.054" cy="214.337" r="2.047"/>
    <circle cx="198.004" cy="285.427" r="2.047"/>
    <circle cx="105.294" cy="270.504" r="2.047"/>
    <circle cx="221.272" cy="214.792" r="2.047"/>
    <circle cx="229.223" cy="285.883" r="2.047"/>
    <circle cx="105.454" cy="194.558" r="2.047"/>
    <circle cx="132.467" cy="280.745" r="2.047"/>
    <circle cx="250.007" cy="215.818" r="2.047"/>
    <circle cx="257.958" cy="286.909" r="2.047"/>
    <circle cx="134.189" cy="195.584" r="2.047"/>
    <circle cx="148.182" cy="181.072" r="2.047"/>
</svg>
