<?xml version="1.0" encoding="UTF-8" standalone="no"?>
<!DOCTYPE svg PUBLIC "-//W3C//DTD SVG 1.1//EN" "http://www.w3.org/Graphics/SVG/1.1/DTD/svg11.dtd">
<svg width="100%" height="100%" viewBox="0 0 301 301" version="1.1" xmlns="http://www.w3.org/2000/svg" xmlns:xlink="http://www.w3.org/1999/xlink" xml:space="preserve" xmlns:serif="http://www.serif.com/" style="fill-rule:evenodd;clip-rule:evenodd;stroke-linecap:round;stroke-linejoin:round;stroke-miterlimit:1.5;">
    <rect id="_53" serif:id="53" x="0.449" y="0.402" width="300" height="300" style="fill:none;"/>
    <path d="M277.216,149.654C289.314,141.55 300.507,119.506 286.607,99.273C274.541,81.709 249.007,81.872 219.544,96.078C235.905,80.072 189.002,36.185 171.83,71.741C189.002,36.185 114.697,3.767 109.109,59.192C59.932,29.911 42.391,83.505 64.745,106.394C18.92,83.505 -5.883,117.67 16.343,149.93" style="fill:none;stroke:black;stroke-width:12.5px;"/>
    <circle cx="43.258" cy="221.491" r="2.047"/>
    <circle cx="169.059" cy="148.328" r="2.047"/>
    <circle cx="167.187" cy="236.87" r="2.047"/>
    <circle cx="43.419" cy="145.545" r="2.047"/>
    <circle cx="69.694" cy="214.75" r="2.047"/>
    <circle cx="181.239" cy="165.779" r="2.047"/>
    <circle cx="189.19" cy="248.752" r="2.047"/>
    <circle cx="65.422" cy="145.545" r="2.047"/>
    <circle cx="100.94" cy="215.021" r="2.047"/>
    <circle cx="208.455" cy="166.442" r="2.047"/>
    <circle cx="216.406" cy="237.532" r="2.047"/>
    <circle cx="92.637" cy="146.207" r="2.047"/>
    <circle cx="107.93" cy="146.066" r="2.047"/>
    <circle cx="100.208" cy="177.214" r="2.047"/>
    <circle cx="92.047" cy="190.639" r="2.047"/>
    <circle cx="59.619" cy="184.426" r="2.047"/>
    <circle cx="118.017" cy="182.004" r="2.047"/>
    <circle cx="83.564" cy="207.932" r="2.047"/>
    <circle cx="53.152" cy="201.426" r="2.047"/>
    <circle cx="58.656" cy="227.756" r="2.047"/>
    <circle cx="31.671" cy="244.085" r="2.047"/>
    <circle cx="62.626" cy="257.247" r="2.047"/>
    <circle cx="43.16" cy="284.193" r="2.047"/>
    <circle cx="88.186" cy="268.277" r="2.047"/>
    <circle cx="95.236" cy="287.251" r="2.047"/>
    <circle cx="102.583" cy="253.444" r="2.047"/>
    <circle cx="84.646" cy="230.816" r="2.047"/>
    <circle cx="144.886" cy="260.955" r="2.047"/>
    <circle cx="148.57" cy="223.384" r="2.047"/>
    <circle cx="176.681" cy="203.812" r="2.047"/>
    <circle cx="153.974" cy="196.646" r="2.047"/>
    <circle cx="182.197" cy="266.764" r="2.047"/>
    <circle cx="189.865" cy="233.616" r="2.047"/>
    <circle cx="211.26" cy="254.466" r="2.047"/>
    <circle cx="203.238" cy="226.221" r="2.047"/>
    <circle cx="217.374" cy="199.868" r="2.047"/>
    <circle cx="195.369" cy="181.157" r="2.047"/>
    <circle cx="131.405" cy="176.662" r="2.047"/>
    <circle cx="247.457" cy="188.107" r="2.047"/>
    <circle cx="222.955" cy="158.501" r="2.047"/>
    <circle cx="193.864" cy="155.079" r="2.047"/>
    <circle cx="158.511" cy="167.163" r="2.047"/>
    <circle cx="126.589" cy="220.618" r="2.047"/>
    <circle cx="242.567" cy="164.907" r="2.047"/>
    <circle cx="250.518" cy="235.997" r="2.047"/>
    <circle cx="126.75" cy="144.673" r="2.047"/>
    <circle cx="141.576" cy="238.07" r="2.047"/>
    <circle cx="257.554" cy="182.359" r="2.047"/>
    <circle cx="265.505" cy="253.449" r="2.047"/>
    <circle cx="141.736" cy="162.125" r="2.047"/>
    <circle cx="111.282" cy="236.938" r="2.047"/>
    <circle cx="227.26" cy="181.226" r="2.047"/>
    <circle cx="235.211" cy="252.317" r="2.047"/>
    <circle cx="111.442" cy="160.992" r="2.047"/>
    <circle cx="83.26" cy="249.612" r="2.047"/>
    <circle cx="199.238" cy="193.901" r="2.047"/>
    <circle cx="207.189" cy="264.991" r="2.047"/>
    <circle cx="83.42" cy="173.666" r="2.047"/>
    <circle cx="87.003" cy="162.94" r="2.047"/>
    <circle cx="58.493" cy="242.41" r="2.047"/>
    <circle cx="174.471" cy="186.699" r="2.047"/>
    <circle cx="164.435" cy="257.789" r="2.047"/>
    <circle cx="58.654" cy="166.464" r="2.047"/>
    <circle cx="41.961" cy="266.038" r="2.047"/>
    <circle cx="157.939" cy="210.326" r="2.047"/>
    <circle cx="165.89" cy="281.417" r="2.047"/>
    <circle cx="42.121" cy="190.092" r="2.047"/>
    <circle cx="72.223" cy="278.9" r="2.047"/>
    <circle cx="189.972" cy="214.739" r="2.047"/>
    <circle cx="197.923" cy="285.83" r="2.047"/>
    <circle cx="74.155" cy="194.505" r="2.047"/>
    <circle cx="105.213" cy="270.906" r="2.047"/>
    <circle cx="221.191" cy="215.195" r="2.047"/>
    <circle cx="229.142" cy="286.285" r="2.047"/>
    <circle cx="105.373" cy="194.961" r="2.047"/>
    <circle cx="132.386" cy="281.147" r="2.047"/>
    <circle cx="249.926" cy="216.221" r="2.047"/>
    <circle cx="257.877" cy="287.311" r="2.047"/>
    <circle cx="134.108" cy="195.987" r="2.047"/>
    <circle cx="121.733" cy="256.563" r="2.047"/>
    <circle cx="237.711" cy="200.852" r="2.047"/>
    <circle cx="245.662" cy="271.943" r="2.047"/>
    <circle cx="148.101" cy="181.474" r="2.047"/>
</svg>
