<?xml version="1.0" encoding="UTF-8" standalone="no"?>
<!DOCTYPE svg PUBLIC "-//W3C//DTD SVG 1.1//EN" "http://www.w3.org/Graphics/SVG/1.1/DTD/svg11.dtd">
<svg width="100%" height="100%" viewBox="0 0 301 301" version="1.1" xmlns="http://www.w3.org/2000/svg" xmlns:xlink="http://www.w3.org/1999/xlink" xml:space="preserve" xmlns:serif="http://www.serif.com/" style="fill-rule:evenodd;clip-rule:evenodd;stroke-linecap:round;stroke-linejoin:round;stroke-miterlimit:1.5;">
    <rect id="_55" serif:id="55" x="0.674" y="0.586" width="300" height="300" style="fill:none;"/>
    <path d="M277.441,149.838C289.539,141.734 300.732,119.689 286.832,99.456C274.766,81.892 249.232,82.056 219.769,96.261C236.131,80.255 189.227,36.369 172.055,71.925C189.227,36.369 114.922,3.95 109.334,59.376C60.157,30.094 42.617,83.688 64.97,106.578C19.146,83.688 -5.658,117.853 16.568,150.113" style="fill:none;stroke:black;stroke-width:12.5px;"/>
    <circle cx="43.483" cy="221.674" r="2.047"/>
    <circle cx="169.284" cy="148.512" r="2.047"/>
    <circle cx="167.412" cy="237.053" r="2.047"/>
    <circle cx="43.644" cy="145.729" r="2.047"/>
    <circle cx="43.843" cy="158.138" r="2.047"/>
    <circle cx="75.741" cy="157.984" r="2.047"/>
    <circle cx="68.648" cy="176.835" r="2.047"/>
    <circle cx="59.244" cy="194.395" r="2.047"/>
    <circle cx="85.817" cy="205.056" r="2.047"/>
    <circle cx="94.474" cy="186.412" r="2.047"/>
    <circle cx="118.485" cy="186.349" r="2.047"/>
    <circle cx="130.338" cy="176.41" r="2.047"/>
    <circle cx="128.637" cy="160.418" r="2.047"/>
    <circle cx="100.755" cy="174.294" r="2.047"/>
    <circle cx="108.559" cy="151.374" r="2.047"/>
    <circle cx="69.919" cy="214.934" r="2.047"/>
    <circle cx="181.464" cy="165.963" r="2.047"/>
    <circle cx="189.415" cy="248.936" r="2.047"/>
    <circle cx="65.647" cy="145.729" r="2.047"/>
    <circle cx="101.166" cy="215.204" r="2.047"/>
    <circle cx="208.68" cy="166.625" r="2.047"/>
    <circle cx="216.631" cy="237.715" r="2.047"/>
    <circle cx="92.862" cy="146.391" r="2.047"/>
    <circle cx="126.814" cy="220.802" r="2.047"/>
    <circle cx="242.792" cy="165.09" r="2.047"/>
    <circle cx="250.743" cy="236.181" r="2.047"/>
    <circle cx="126.975" cy="144.856" r="2.047"/>
    <circle cx="141.801" cy="238.254" r="2.047"/>
    <circle cx="257.779" cy="182.542" r="2.047"/>
    <circle cx="265.73" cy="253.633" r="2.047"/>
    <circle cx="141.961" cy="162.308" r="2.047"/>
    <circle cx="162.649" cy="166.118" r="2.047"/>
    <circle cx="196.282" cy="157.231" r="2.047"/>
    <circle cx="194.666" cy="180.036" r="2.047"/>
    <circle cx="211.122" cy="181.647" r="2.047"/>
    <circle cx="227.993" cy="167.111" r="2.047"/>
    <circle cx="243.155" cy="186.851" r="2.047"/>
    <circle cx="217.592" cy="202.293" r="2.047"/>
    <circle cx="204.055" cy="206.037" r="2.047"/>
    <circle cx="182.37" cy="205.351" r="2.047"/>
    <circle cx="165.227" cy="197.733" r="2.047"/>
    <circle cx="151.014" cy="200.076" r="2.047"/>
    <circle cx="143.418" cy="214.45" r="2.047"/>
    <circle cx="153.877" cy="228.196" r="2.047"/>
    <circle cx="172.871" cy="220.285" r="2.047"/>
    <circle cx="181.858" cy="231.822" r="2.047"/>
    <circle cx="203.692" cy="230.022" r="2.047"/>
    <circle cx="205.344" cy="220.406" r="2.047"/>
    <circle cx="234.033" cy="228.532" r="2.047"/>
    <circle cx="261.682" cy="227.889" r="2.047"/>
    <circle cx="250.569" cy="257.886" r="2.047"/>
    <circle cx="236.03" cy="241.909" r="2.047"/>
    <circle cx="223.416" cy="249.632" r="2.047"/>
    <circle cx="207.068" cy="251.736" r="2.047"/>
    <circle cx="196.018" cy="241.64" r="2.047"/>
    <circle cx="176.44" cy="247.603" r="2.047"/>
    <circle cx="176.314" cy="269.377" r="2.047"/>
    <circle cx="191.415" cy="264.395" r="2.047"/>
    <circle cx="210.746" cy="278.613" r="2.047"/>
    <circle cx="229.298" cy="268.29" r="2.047"/>
    <circle cx="243.709" cy="288.055" r="2.047"/>
    <circle cx="259.306" cy="272.99" r="2.047"/>
    <circle cx="235.558" cy="216.625" r="2.047"/>
    <circle cx="257.16" cy="202.465" r="2.047"/>
    <circle cx="111.507" cy="237.121" r="2.047"/>
    <circle cx="227.485" cy="181.41" r="2.047"/>
    <circle cx="235.436" cy="252.5" r="2.047"/>
    <circle cx="111.667" cy="161.176" r="2.047"/>
    <circle cx="83.485" cy="249.795" r="2.047"/>
    <circle cx="199.463" cy="194.084" r="2.047"/>
    <circle cx="207.414" cy="265.174" r="2.047"/>
    <circle cx="83.645" cy="173.85" r="2.047"/>
    <circle cx="58.718" cy="242.593" r="2.047"/>
    <circle cx="174.696" cy="186.882" r="2.047"/>
    <circle cx="164.66" cy="257.972" r="2.047"/>
    <circle cx="135.113" cy="251.786" r="2.047"/>
    <circle cx="124.666" cy="271.52" r="2.047"/>
    <circle cx="102.832" cy="252.716" r="2.047"/>
    <circle cx="125.687" cy="245.178" r="2.047"/>
    <circle cx="129.955" cy="232.118" r="2.047"/>
    <circle cx="142.962" cy="228.274" r="2.047"/>
    <circle cx="169.429" cy="212.21" r="2.047"/>
    <circle cx="177.372" cy="195.859" r="2.047"/>
    <circle cx="151.258" cy="191.583" r="2.047"/>
    <circle cx="133.311" cy="185.785" r="2.047"/>
    <circle cx="119.389" cy="198.239" r="2.047"/>
    <circle cx="112.255" cy="212.618" r="2.047"/>
    <circle cx="135.522" cy="212.217" r="2.047"/>
    <circle cx="123.588" cy="207.038" r="2.047"/>
    <circle cx="114.369" cy="226.483" r="2.047"/>
    <circle cx="114.413" cy="248.044" r="2.047"/>
    <circle cx="114.266" cy="263.414" r="2.047"/>
    <circle cx="91.964" cy="263.329" r="2.047"/>
    <circle cx="93.98" cy="244.714" r="2.047"/>
    <circle cx="99.009" cy="231.726" r="2.047"/>
    <circle cx="106.331" cy="223.134" r="2.047"/>
    <circle cx="86.597" cy="222.601" r="2.047"/>
    <circle cx="100.603" cy="206.608" r="2.047"/>
    <circle cx="89.311" cy="196.267" r="2.047"/>
    <circle cx="105.648" cy="184.666" r="2.047"/>
    <circle cx="117.707" cy="171.477" r="2.047"/>
    <circle cx="126.038" cy="170.598" r="2.047"/>
    <circle cx="182.475" cy="155.04" r="2.047"/>
    <circle cx="163.462" cy="157.288" r="2.047"/>
    <circle cx="221.404" cy="157.104" r="2.047"/>
    <circle cx="234.176" cy="175.204" r="2.047"/>
    <circle cx="202.369" cy="174.71" r="2.047"/>
    <circle cx="262.272" cy="170.699" r="2.047"/>
    <circle cx="255.694" cy="163.763" r="2.047"/>
    <circle cx="234.593" cy="156.348" r="2.047"/>
    <circle cx="146.615" cy="245.518" r="2.047"/>
    <circle cx="109.224" cy="178.187" r="2.047"/>
    <circle cx="141.442" cy="173.466" r="2.047"/>
    <circle cx="139.529" cy="155.144" r="2.047"/>
    <circle cx="92.637" cy="162.25" r="2.047"/>
    <circle cx="59.206" cy="154.861" r="2.047"/>
    <circle cx="46.327" cy="177.881" r="2.047"/>
    <circle cx="60.124" cy="183.154" r="2.047"/>
    <circle cx="82.004" cy="185.362" r="2.047"/>
    <circle cx="67.512" cy="204.839" r="2.047"/>
    <circle cx="50.351" cy="209.012" r="2.047"/>
    <circle cx="50.537" cy="196.334" r="2.047"/>
    <circle cx="57.667" cy="225.46" r="2.047"/>
    <circle cx="74.862" cy="230.222" r="2.047"/>
    <circle cx="85.723" cy="235.307" r="2.047"/>
    <circle cx="72.091" cy="242.405" r="2.047"/>
    <circle cx="48.287" cy="237.701" r="2.047"/>
    <circle cx="48.101" cy="256.632" r="2.047"/>
    <circle cx="67.605" cy="256.462" r="2.047"/>
    <circle cx="76.022" cy="265.361" r="2.047"/>
    <circle cx="59.572" cy="267.087" r="2.047"/>
    <circle cx="50.827" cy="278.959" r="2.047"/>
    <circle cx="89.155" cy="274.052" r="2.047"/>
    <circle cx="92.319" cy="288.482" r="2.047"/>
    <circle cx="116.009" cy="279.463" r="2.047"/>
    <circle cx="193.04" cy="230.773" r="2.047"/>
    <circle cx="187.443" cy="195.415" r="2.047"/>
    <circle cx="159.525" cy="182.93" r="2.047"/>
    <circle cx="184.327" cy="177.713" r="2.047"/>
    <circle cx="172.624" cy="177.688" r="2.047"/>
    <circle cx="153.335" cy="152.461" r="2.047"/>
    <circle cx="153.596" cy="171.116" r="2.047"/>
    <circle cx="216.019" cy="191.338" r="2.047"/>
    <circle cx="227.201" cy="193.665" r="2.047"/>
    <circle cx="227.201" cy="205.262" r="2.047"/>
    <circle cx="226.804" cy="225.533" r="2.047"/>
    <circle cx="214.311" cy="227.651" r="2.047"/>
    <circle cx="204.93" cy="242.632" r="2.047"/>
    <circle cx="217.283" cy="260.723" r="2.047"/>
    <circle cx="218.584" cy="277.023" r="2.047"/>
    <circle cx="234.332" cy="277.023" r="2.047"/>
    <circle cx="239.542" cy="262.591" r="2.047"/>
    <circle cx="256.809" cy="248.693" r="2.047"/>
    <circle cx="244.779" cy="248.674" r="2.047"/>
    <circle cx="244.499" cy="227.601" r="2.047"/>
    <circle cx="244.384" cy="210.853" r="2.047"/>
    <circle cx="246.628" cy="198.314" r="2.047"/>
    <circle cx="255.467" cy="190.492" r="2.047"/>
    <circle cx="244.282" cy="175.128" r="2.047"/>
    <circle cx="235.621" cy="188.86" r="2.047"/>
    <circle cx="215.427" cy="171.277" r="2.047"/>
    <circle cx="190.262" cy="167.745" r="2.047"/>
    <circle cx="206.772" cy="188.184" r="2.047"/>
    <circle cx="214.799" cy="216.229" r="2.047"/>
    <circle cx="193.929" cy="204.778" r="2.047"/>
    <circle cx="182.74" cy="224.787" r="2.047"/>
    <circle cx="161.975" cy="223.306" r="2.047"/>
    <circle cx="157.153" cy="243.864" r="2.047"/>
    <circle cx="148.667" cy="256.356" r="2.047"/>
    <circle cx="140.72" cy="266.727" r="2.047"/>
    <circle cx="151.906" cy="279.142" r="2.047"/>
    <circle cx="159.257" cy="268.623" r="2.047"/>
    <circle cx="183.948" cy="284.083" r="2.047"/>
    <circle cx="197.192" cy="275.331" r="2.047"/>
    <circle cx="177.609" cy="259.826" r="2.047"/>
    <circle cx="218.336" cy="288.113" r="2.047"/>
    <circle cx="58.879" cy="166.648" r="2.047"/>
    <circle cx="42.186" cy="266.221" r="2.047"/>
    <circle cx="158.164" cy="210.51" r="2.047"/>
    <circle cx="166.115" cy="281.6" r="2.047"/>
    <circle cx="42.347" cy="190.276" r="2.047"/>
    <circle cx="72.448" cy="279.084" r="2.047"/>
    <circle cx="190.198" cy="214.923" r="2.047"/>
    <circle cx="198.148" cy="286.013" r="2.047"/>
    <circle cx="74.38" cy="194.689" r="2.047"/>
    <circle cx="105.438" cy="271.09" r="2.047"/>
    <circle cx="221.416" cy="215.378" r="2.047"/>
    <circle cx="229.367" cy="286.469" r="2.047"/>
    <circle cx="105.598" cy="195.144" r="2.047"/>
    <circle cx="132.611" cy="281.33" r="2.047"/>
    <circle cx="250.151" cy="216.404" r="2.047"/>
    <circle cx="258.102" cy="287.494" r="2.047"/>
    <circle cx="134.333" cy="196.17" r="2.047"/>
    <circle cx="121.958" cy="256.747" r="2.047"/>
    <circle cx="237.936" cy="201.035" r="2.047"/>
    <circle cx="245.887" cy="272.126" r="2.047"/>
    <circle cx="148.326" cy="181.658" r="2.047"/>
</svg>
