<?xml version="1.0" encoding="UTF-8" standalone="no"?>
<!DOCTYPE svg PUBLIC "-//W3C//DTD SVG 1.1//EN" "http://www.w3.org/Graphics/SVG/1.1/DTD/svg11.dtd">
<svg width="100%" height="100%" viewBox="0 0 301 301" version="1.1" xmlns="http://www.w3.org/2000/svg" xmlns:xlink="http://www.w3.org/1999/xlink" xml:space="preserve" xmlns:serif="http://www.serif.com/" style="fill-rule:evenodd;clip-rule:evenodd;stroke-linecap:round;stroke-linejoin:round;stroke-miterlimit:1.5;">
    <rect id="_61" serif:id="61" x="0.067" y="0.836" width="300" height="300" style="fill:none;"/>
    <path d="M276.834,150.088C288.932,141.984 300.125,119.939 286.225,99.706C274.159,82.142 248.625,82.306 219.162,96.511C235.524,80.505 188.62,36.619 171.448,72.175C188.62,36.619 114.315,4.2 108.727,59.626C59.55,30.344 42.01,83.938 64.363,106.828C18.539,83.938 -6.265,118.103 15.961,150.363" style="fill:none;stroke:black;stroke-width:12.5px;"/>
    <path d="M56.427,166.606C49.452,177.756 34.375,181.847 34.471,191.211C34.541,197.98 40.296,201.454 45.801,198.201C53.49,193.658 50.146,178.213 56.427,166.606Z"/>
    <path d="M224.507,175.361C217.532,186.511 202.455,190.601 202.551,199.965C202.621,206.735 208.376,210.208 213.881,206.955C221.57,202.413 218.226,186.967 224.507,175.361Z"/>
    <path d="M106.335,205.048C99.36,216.199 84.283,220.289 84.38,229.653C84.45,236.422 90.204,239.896 95.709,236.643C103.398,232.1 100.054,216.655 106.335,205.048Z"/>
    <path d="M232.655,249.193C225.68,260.343 210.604,264.433 210.7,273.797C210.77,280.567 216.524,284.04 222.03,280.787C229.718,276.245 226.375,260.799 232.655,249.193Z"/>
</svg>
