<?xml version="1.0" encoding="UTF-8" standalone="no"?>
<!DOCTYPE svg PUBLIC "-//W3C//DTD SVG 1.1//EN" "http://www.w3.org/Graphics/SVG/1.1/DTD/svg11.dtd">
<svg width="100%" height="100%" viewBox="0 0 301 301" version="1.1" xmlns="http://www.w3.org/2000/svg" xmlns:xlink="http://www.w3.org/1999/xlink" xml:space="preserve" xmlns:serif="http://www.serif.com/" style="fill-rule:evenodd;clip-rule:evenodd;stroke-linecap:round;stroke-linejoin:round;stroke-miterlimit:1.5;">
    <rect id="_62" serif:id="62" x="0.955" y="0.615" width="300" height="300" style="fill:none;"/>
    <path d="M277.722,149.866C289.82,141.763 301.013,119.718 287.113,99.485C275.047,81.921 249.513,82.085 220.05,96.29C236.411,80.284 189.507,36.398 172.336,71.954C189.507,36.398 115.203,3.979 109.615,59.404C60.437,30.123 42.897,83.717 65.251,106.607C19.426,83.717 -5.377,117.882 16.848,150.142" style="fill:none;stroke:black;stroke-width:12.5px;"/>
    <path d="M57.315,166.385C50.339,177.535 35.263,181.626 35.359,190.99C35.429,197.759 41.184,201.233 46.689,197.98C54.377,193.437 51.034,177.992 57.315,166.385Z"/>
    <path d="M253.595,175.139C246.619,186.29 231.543,190.38 231.639,199.744C231.709,206.514 237.464,209.987 242.969,206.734C250.657,202.192 247.314,186.746 253.595,175.139Z"/>
    <path d="M128.898,209.038C121.923,220.188 106.846,224.279 106.943,233.643C107.013,240.412 112.767,243.885 118.272,240.633C125.961,236.09 122.617,220.645 128.898,209.038Z"/>
    <path d="M153.282,133.403C146.307,144.554 131.23,148.644 131.326,158.008C131.396,164.777 137.151,168.251 142.656,164.998C150.345,160.455 147.001,145.01 153.282,133.403Z"/>
    <path d="M163.278,250.541C156.303,261.692 141.226,265.782 141.323,275.146C141.393,281.916 147.147,285.389 152.652,282.136C160.341,277.593 156.997,262.148 163.278,250.541Z"/>
    <path d="M197.241,197.649C190.266,208.8 175.189,212.89 175.286,222.254C175.356,229.024 181.11,232.497 186.615,229.244C194.304,224.701 190.96,209.256 197.241,197.649Z"/>
    <path d="M61.96,242.79C54.985,253.94 39.909,258.031 40.005,267.395C40.075,274.164 45.829,277.637 51.335,274.385C59.023,269.842 55.68,254.397 61.96,242.79Z"/>
    <path d="M233.543,248.972C226.568,260.122 211.492,264.212 211.588,273.576C211.658,280.346 217.412,283.819 222.918,280.566C230.606,276.024 227.263,260.578 233.543,248.972Z"/>
    <path d="M286.277,217.826C279.302,228.977 264.226,233.067 264.322,242.431C264.392,249.2 270.147,252.674 275.652,249.421C283.34,244.878 279.997,229.433 286.277,217.826Z"/>
</svg>
