<?xml version="1.0" encoding="UTF-8" standalone="no"?>
<!DOCTYPE svg PUBLIC "-//W3C//DTD SVG 1.1//EN" "http://www.w3.org/Graphics/SVG/1.1/DTD/svg11.dtd">
<svg width="100%" height="100%" viewBox="0 0 301 301" version="1.1" xmlns="http://www.w3.org/2000/svg" xmlns:xlink="http://www.w3.org/1999/xlink" xml:space="preserve" xmlns:serif="http://www.serif.com/" style="fill-rule:evenodd;clip-rule:evenodd;stroke-linecap:round;stroke-linejoin:round;stroke-miterlimit:1.5;">
    <rect id="_65" serif:id="65" x="0.187" y="0.505" width="300" height="300" style="fill:none;"/>
    <path d="M276.954,149.757C289.052,141.653 300.245,119.609 286.345,99.376C274.279,81.811 248.745,81.975 219.282,96.18C235.644,80.175 188.74,36.288 171.568,71.844C188.74,36.288 114.435,3.87 108.847,59.295C59.67,30.014 42.13,83.608 64.483,106.497C18.659,83.608 -6.145,117.773 16.081,150.033" style="fill:none;stroke:black;stroke-width:12.5px;"/>
    <path d="M56.547,166.275C49.572,177.426 34.495,181.516 34.592,190.88C34.661,197.65 40.416,201.123 45.921,197.87C53.61,193.327 50.266,177.882 56.547,166.275Z"/>
    <path d="M232.48,145.41C225.505,156.56 210.428,160.65 210.525,170.014C210.594,176.784 216.349,180.257 221.854,177.004C229.543,172.462 226.199,157.016 232.48,145.41Z"/>
    <path d="M128.13,217.129C121.155,228.279 106.078,232.369 106.175,241.733C106.245,248.503 111.999,251.976 117.505,248.723C125.193,244.181 121.85,228.735 128.13,217.129Z"/>
    <path d="M94.96,152.573C87.985,163.723 72.908,167.814 73.004,177.178C73.074,183.947 78.829,187.421 84.334,184.168C92.023,179.625 88.679,164.18 94.96,152.573Z"/>
    <path d="M125.815,175.221C118.84,186.372 103.763,190.462 103.86,199.826C103.929,206.595 109.684,210.069 115.189,206.816C122.878,202.273 119.534,186.828 125.815,175.221Z"/>
    <path d="M82.536,206.168C75.561,217.319 60.485,221.409 60.581,230.773C60.651,237.542 66.405,241.016 71.911,237.763C79.599,233.22 76.256,217.775 82.536,206.168Z"/>
    <path d="M267.153,176.938C260.178,188.088 245.101,192.178 245.198,201.542C245.268,208.312 251.022,211.785 256.528,208.532C264.216,203.99 260.873,188.544 267.153,176.938Z"/>
    <path d="M196.04,243.058C189.065,254.208 173.988,258.299 174.085,267.663C174.154,274.432 179.909,277.905 185.414,274.653C193.103,270.11 189.759,254.665 196.04,243.058Z"/>
    <path d="M190.798,146.893C183.823,158.043 168.746,162.133 168.843,171.497C168.913,178.267 174.667,181.74 180.172,178.487C187.861,173.945 184.517,158.499 190.798,146.893Z"/>
    <path d="M181.326,201.374C174.351,212.524 159.274,216.614 159.371,225.978C159.441,232.748 165.195,236.221 170.7,232.969C178.389,228.426 175.045,212.98 181.326,201.374Z"/>
    <path d="M157.39,172.837C150.414,183.988 135.338,188.078 135.434,197.442C135.504,204.212 141.259,207.685 146.764,204.432C154.452,199.89 151.109,184.444 157.39,172.837Z"/>
    <path d="M104.57,257.088C97.595,268.238 82.518,272.328 82.615,281.692C82.684,288.462 88.439,291.935 93.944,288.682C101.633,284.14 98.289,268.694 104.57,257.088Z"/>
    <path d="M35.115,212.688C28.14,223.839 13.063,227.929 13.16,237.293C13.23,244.063 18.984,247.536 24.489,244.283C32.178,239.74 28.834,224.295 35.115,212.688Z"/>
    <path d="M152.514,133.294C145.539,144.444 130.462,148.534 130.559,157.898C130.628,164.668 136.383,168.141 141.888,164.888C149.577,160.346 146.233,144.9 152.514,133.294Z"/>
    <path d="M152.661,239.985C145.686,251.136 130.609,255.226 130.706,264.59C130.775,271.359 136.53,274.833 142.035,271.58C149.724,267.037 146.38,251.592 152.661,239.985Z"/>
    <path d="M223.817,201.732C216.842,212.882 201.765,216.972 201.862,226.336C201.932,233.106 207.686,236.579 213.191,233.326C220.88,228.784 217.536,213.338 223.817,201.732Z"/>
    <path d="M61.193,242.68C54.217,253.831 39.141,257.921 39.237,267.285C39.307,274.055 45.062,277.528 50.567,274.275C58.255,269.732 54.912,254.287 61.193,242.68Z"/>
    <path d="M228.372,261.366C221.397,272.516 206.32,276.607 206.417,285.97C206.487,292.74 212.241,296.213 217.746,292.961C225.435,288.418 222.091,272.973 228.372,261.366Z"/>
    <path d="M250.176,221.372C243.201,232.522 228.124,236.613 228.221,245.977C228.29,252.746 234.045,256.219 239.55,252.967C247.239,248.424 243.895,232.979 250.176,221.372Z"/>
    <path d="M266.485,260.701C259.51,271.851 244.434,275.941 244.53,285.305C244.6,292.075 250.354,295.548 255.86,292.295C263.548,287.753 260.205,272.307 266.485,260.701Z"/>
    <path d="M285.51,217.717C278.534,228.867 263.458,232.957 263.554,242.321C263.624,249.091 269.379,252.564 274.884,249.311C282.573,244.769 279.229,229.323 285.51,217.717Z"/>
</svg>
