<?xml version="1.0" encoding="UTF-8" standalone="no"?>
<!DOCTYPE svg PUBLIC "-//W3C//DTD SVG 1.1//EN" "http://www.w3.org/Graphics/SVG/1.1/DTD/svg11.dtd">
<svg width="100%" height="100%" viewBox="0 0 301 301" version="1.1" xmlns="http://www.w3.org/2000/svg" xmlns:xlink="http://www.w3.org/1999/xlink" xml:space="preserve" xmlns:serif="http://www.serif.com/" style="fill-rule:evenodd;clip-rule:evenodd;stroke-linecap:round;stroke-linejoin:round;stroke-miterlimit:1.5;">
    <rect id="_66" serif:id="66" x="0.472" y="0.769" width="300" height="300" style="fill:none;"/>
    <path d="M277.238,150.02C289.336,141.917 300.529,119.872 286.63,99.639C274.564,82.075 249.029,82.239 219.566,96.444C235.928,80.438 189.024,36.552 171.853,72.108C189.024,36.552 114.719,4.133 109.131,59.558C59.954,30.277 42.414,83.871 64.767,106.761C18.943,83.871 -5.861,118.036 16.365,150.296" style="fill:none;stroke:black;stroke-width:12.5px;"/>
    <g>
        <path d="M80.156,177.966L80.156,219.232" style="fill:none;stroke:black;stroke-width:4.17px;"/>
        <path d="M102.343,198.648L57.902,198.648" style="fill:none;stroke:black;stroke-width:4.17px;"/>
        <path d="M93.735,184.97L66.463,212.242" style="fill:none;stroke:black;stroke-width:4.17px;"/>
        <path d="M65.094,183.58L95.161,213.647" style="fill:none;stroke:black;stroke-width:4.17px;"/>
    </g>
    <g>
        <path d="M158.133,238.666L158.133,279.932" style="fill:none;stroke:black;stroke-width:4.17px;"/>
        <path d="M180.319,259.347L135.879,259.347" style="fill:none;stroke:black;stroke-width:4.17px;"/>
        <path d="M171.711,245.669L144.44,272.941" style="fill:none;stroke:black;stroke-width:4.17px;"/>
        <path d="M143.071,244.279L173.138,274.346" style="fill:none;stroke:black;stroke-width:4.17px;"/>
    </g>
    <path d="M173.872,175.995C166.897,187.146 151.82,191.236 151.917,200.6C151.987,207.37 157.741,210.843 163.246,207.59C170.935,203.047 167.591,187.602 173.872,175.995Z"/>
    <path d="M46.181,168.823C39.205,179.973 24.129,184.063 24.225,193.427C24.295,200.197 30.05,203.67 35.555,200.417C43.244,195.875 39.9,180.429 46.181,168.823Z"/>
    <path d="M44.092,243.138C37.117,254.288 22.04,258.379 22.136,267.743C22.206,274.512 27.961,277.985 33.466,274.733C41.155,270.19 37.811,254.745 44.092,243.138Z"/>
    <path d="M108.481,231.413C101.506,242.563 86.43,246.653 86.526,256.017C86.596,262.787 92.35,266.26 97.856,263.007C105.544,258.465 102.201,243.019 108.481,231.413Z"/>
    <path d="M285.567,213.387C278.591,224.537 263.515,228.627 263.611,237.991C263.681,244.761 269.436,248.234 274.941,244.981C282.629,240.439 279.286,224.993 285.567,213.387Z"/>
    <path d="M225.12,237.22C218.145,248.37 203.068,252.461 203.165,261.825C203.235,268.594 208.989,272.067 214.494,268.815C222.183,264.272 218.839,248.827 225.12,237.22Z"/>
    <g>
        <path d="M222.541,175.997L222.541,217.263" style="fill:none;stroke:black;stroke-width:4.17px;"/>
        <path d="M244.727,196.678L200.287,196.678" style="fill:none;stroke:black;stroke-width:4.17px;"/>
        <path d="M236.119,183.001L208.847,210.272" style="fill:none;stroke:black;stroke-width:4.17px;"/>
        <path d="M207.478,181.61L237.545,211.677" style="fill:none;stroke:black;stroke-width:4.17px;"/>
    </g>
</svg>
