<?xml version="1.0" encoding="UTF-8" standalone="no"?>
<!DOCTYPE svg PUBLIC "-//W3C//DTD SVG 1.1//EN" "http://www.w3.org/Graphics/SVG/1.1/DTD/svg11.dtd">
<svg width="100%" height="100%" viewBox="0 0 301 301" version="1.1" xmlns="http://www.w3.org/2000/svg" xmlns:xlink="http://www.w3.org/1999/xlink" xml:space="preserve" xmlns:serif="http://www.serif.com/" style="fill-rule:evenodd;clip-rule:evenodd;stroke-linecap:round;stroke-linejoin:round;stroke-miterlimit:1.5;">
    <rect id="_67" serif:id="67" x="0.08" y="0.224" width="300" height="300" style="fill:none;"/>
    <path d="M276.847,149.476C288.945,141.372 300.138,119.327 286.238,99.094C274.172,81.53 248.638,81.694 219.175,95.899C235.537,79.893 188.633,36.007 171.461,71.563C188.633,36.007 114.328,3.588 108.74,59.014C59.563,29.732 42.023,83.326 64.376,106.216C18.552,83.326 -6.252,117.492 15.974,149.751" style="fill:none;stroke:black;stroke-width:12.5px;"/>
    <g>
        <path d="M94.287,174.379L94.287,209.633" style="fill:none;stroke:black;stroke-width:4.17px;"/>
        <path d="M113.241,192.047L75.276,192.047" style="fill:none;stroke:black;stroke-width:4.17px;"/>
        <path d="M105.887,180.363L82.589,203.661" style="fill:none;stroke:black;stroke-width:4.17px;"/>
        <path d="M81.419,179.175L107.105,204.861" style="fill:none;stroke:black;stroke-width:4.17px;"/>
    </g>
    <g>
        <path d="M84.531,254.343L84.531,289.597" style="fill:none;stroke:black;stroke-width:4.17px;"/>
        <path d="M103.485,272.011L65.52,272.011" style="fill:none;stroke:black;stroke-width:4.17px;"/>
        <path d="M96.131,260.327L72.833,283.625" style="fill:none;stroke:black;stroke-width:4.17px;"/>
        <path d="M71.664,259.139L97.35,284.825" style="fill:none;stroke:black;stroke-width:4.17px;"/>
    </g>
    <g>
        <path d="M180.761,211.166L180.761,246.419" style="fill:none;stroke:black;stroke-width:4.17px;"/>
        <path d="M199.715,228.833L161.75,228.833" style="fill:none;stroke:black;stroke-width:4.17px;"/>
        <path d="M192.361,217.149L169.063,240.447" style="fill:none;stroke:black;stroke-width:4.17px;"/>
        <path d="M167.894,215.961L193.58,241.647" style="fill:none;stroke:black;stroke-width:4.17px;"/>
    </g>
    <g>
        <path d="M181.709,138.606L181.709,173.859" style="fill:none;stroke:black;stroke-width:4.17px;"/>
        <path d="M200.663,156.274L162.698,156.274" style="fill:none;stroke:black;stroke-width:4.17px;"/>
        <path d="M193.309,144.589L170.011,167.887" style="fill:none;stroke:black;stroke-width:4.17px;"/>
        <path d="M168.842,143.401L194.528,169.087" style="fill:none;stroke:black;stroke-width:4.17px;"/>
    </g>
    <g>
        <path d="M28.153,216.252L28.153,251.505" style="fill:none;stroke:black;stroke-width:4.17px;"/>
        <path d="M47.106,233.92L9.141,233.92" style="fill:none;stroke:black;stroke-width:4.17px;"/>
        <path d="M39.752,222.235L16.454,245.533" style="fill:none;stroke:black;stroke-width:4.17px;"/>
        <path d="M15.285,221.047L40.971,246.733" style="fill:none;stroke:black;stroke-width:4.17px;"/>
    </g>
    <g>
        <path d="M237.796,180.573L237.796,215.826" style="fill:none;stroke:black;stroke-width:4.17px;"/>
        <path d="M256.75,198.24L218.784,198.24" style="fill:none;stroke:black;stroke-width:4.17px;"/>
        <path d="M249.396,186.556L226.098,209.854" style="fill:none;stroke:black;stroke-width:4.17px;"/>
        <path d="M224.928,185.368L250.614,211.054" style="fill:none;stroke:black;stroke-width:4.17px;"/>
    </g>
    <g>
        <path d="M262.448,239.165L262.448,274.419" style="fill:none;stroke:black;stroke-width:4.17px;"/>
        <path d="M281.402,256.833L243.437,256.833" style="fill:none;stroke:black;stroke-width:4.17px;"/>
        <path d="M274.048,245.148L250.75,268.446" style="fill:none;stroke:black;stroke-width:4.17px;"/>
        <path d="M249.581,243.961L275.267,269.647" style="fill:none;stroke:black;stroke-width:4.17px;"/>
    </g>
    <path d="M226.797,238.388C219.822,249.538 204.745,253.629 204.841,262.993C204.911,269.762 210.666,273.235 216.171,269.983C223.86,265.44 220.516,249.995 226.797,238.388Z"/>
    <path d="M186.737,259.369C179.762,270.52 164.685,274.61 164.782,283.974C164.851,290.744 170.606,294.217 176.111,290.964C183.8,286.421 180.456,270.976 186.737,259.369Z"/>
    <path d="M148.689,149.607C141.714,160.758 126.637,164.848 126.734,174.212C126.803,180.982 132.558,184.455 138.063,181.202C145.752,176.659 142.408,161.214 148.689,149.607Z"/>
    <path d="M172.098,175.078C165.123,186.228 150.047,190.319 150.143,199.683C150.213,206.452 155.967,209.926 161.473,206.673C169.161,202.13 165.818,186.685 172.098,175.078Z"/>
    <path d="M233.546,145.344C226.571,156.495 211.495,160.585 211.591,169.949C211.661,176.719 217.416,180.192 222.921,176.939C230.609,172.397 227.266,156.951 233.546,145.344Z"/>
    <path d="M41.005,158.91C34.03,170.06 18.953,174.151 19.05,183.515C19.12,190.284 24.874,193.757 30.38,190.505C38.068,185.962 34.725,170.517 41.005,158.91Z"/>
    <path d="M81.063,220.778C74.088,231.929 59.011,236.019 59.108,245.383C59.177,252.152 64.932,255.626 70.437,252.373C78.126,247.83 74.782,232.385 81.063,220.778Z"/>
    <path d="M147.96,219.857C140.985,231.008 125.908,235.098 126.005,244.462C126.075,251.232 131.829,254.705 137.334,251.452C145.023,246.909 141.679,231.464 147.96,219.857Z"/>
    <path d="M122.548,214.714C115.573,225.864 100.496,229.955 100.593,239.319C100.663,246.088 106.417,249.562 111.922,246.309C119.611,241.766 116.267,226.321 122.548,214.714Z"/>
    <path d="M240.135,260.652C233.16,271.802 218.084,275.892 218.18,285.256C218.25,292.026 224.004,295.499 229.51,292.246C237.198,287.704 233.855,272.258 240.135,260.652Z"/>
    <path d="M38.186,260.842C31.21,271.992 16.134,276.083 16.23,285.447C16.3,292.216 22.055,295.689 27.56,292.437C35.248,287.894 31.905,272.449 38.186,260.842Z"/>
    <path d="M65.193,176.885C58.218,188.036 43.142,192.126 43.238,201.49C43.308,208.259 49.062,211.733 54.568,208.48C62.256,203.937 58.913,188.492 65.193,176.885Z"/>
    <path d="M146.562,258.582C139.587,269.732 124.511,273.822 124.607,283.186C124.677,289.956 130.431,293.429 135.937,290.177C143.625,285.634 140.282,270.188 146.562,258.582Z"/>
    <path d="M286.118,200.205C279.143,211.355 264.066,215.445 264.163,224.809C264.233,231.579 269.987,235.052 275.493,231.799C283.181,227.257 279.838,211.811 286.118,200.205Z"/>
</svg>
