<?xml version="1.0" encoding="UTF-8" standalone="no"?>
<!DOCTYPE svg PUBLIC "-//W3C//DTD SVG 1.1//EN" "http://www.w3.org/Graphics/SVG/1.1/DTD/svg11.dtd">
<svg width="100%" height="100%" viewBox="0 0 301 301" version="1.1" xmlns="http://www.w3.org/2000/svg" xmlns:xlink="http://www.w3.org/1999/xlink" xml:space="preserve" xmlns:serif="http://www.serif.com/" style="fill-rule:evenodd;clip-rule:evenodd;stroke-linecap:round;stroke-linejoin:round;stroke-miterlimit:1.5;">
    <rect id="_73" serif:id="73" x="0.38" y="0.463" width="300" height="300" style="fill:none;"/>
    <path d="M277.146,149.715C289.244,141.611 300.437,119.567 286.538,99.334C274.472,81.769 248.937,81.933 219.474,96.138C235.836,80.133 188.932,36.246 171.761,71.802C188.932,36.246 114.628,3.828 109.039,59.253C59.862,29.972 42.322,83.566 64.675,106.455C18.851,83.566 -5.953,117.731 16.273,149.991" style="fill:none;stroke:black;stroke-width:12.5px;"/>
    <g>
        <path d="M81,142.986L81,171.487" style="fill:none;stroke:black;stroke-width:4.17px;"/>
        <path d="M96.323,157.27L65.63,157.27" style="fill:none;stroke:black;stroke-width:4.17px;"/>
        <path d="M90.377,147.824L71.542,166.659" style="fill:none;stroke:black;stroke-width:4.17px;"/>
        <path d="M70.597,146.863L91.363,167.629" style="fill:none;stroke:black;stroke-width:4.17px;"/>
    </g>
    <g>
        <path d="M87.557,224.524L87.557,253.024" style="fill:none;stroke:black;stroke-width:4.17px;"/>
        <path d="M102.88,238.807L72.187,238.807" style="fill:none;stroke:black;stroke-width:4.17px;"/>
        <path d="M96.935,229.361L78.1,248.196" style="fill:none;stroke:black;stroke-width:4.17px;"/>
        <path d="M77.154,228.401L97.92,249.166" style="fill:none;stroke:black;stroke-width:4.17px;"/>
    </g>
    <g>
        <path d="M235.914,154.244L235.914,182.744" style="fill:none;stroke:black;stroke-width:4.17px;"/>
        <path d="M251.237,168.527L220.545,168.527" style="fill:none;stroke:black;stroke-width:4.17px;"/>
        <path d="M245.292,159.081L226.457,177.916" style="fill:none;stroke:black;stroke-width:4.17px;"/>
        <path d="M225.511,158.121L246.277,178.887" style="fill:none;stroke:black;stroke-width:4.17px;"/>
    </g>
    <g>
        <path d="M229.617,211.948L229.617,240.449" style="fill:none;stroke:black;stroke-width:4.17px;"/>
        <path d="M244.94,226.232L214.247,226.232" style="fill:none;stroke:black;stroke-width:4.17px;"/>
        <path d="M238.994,216.786L220.159,235.621" style="fill:none;stroke:black;stroke-width:4.17px;"/>
        <path d="M219.214,215.825L239.979,236.591" style="fill:none;stroke:black;stroke-width:4.17px;"/>
    </g>
    <g>
        <path d="M166.386,148.139L166.386,176.639" style="fill:none;stroke:black;stroke-width:4.17px;"/>
        <path d="M181.709,162.422L151.016,162.422" style="fill:none;stroke:black;stroke-width:4.17px;"/>
        <path d="M175.764,152.976L156.929,171.811" style="fill:none;stroke:black;stroke-width:4.17px;"/>
        <path d="M155.983,152.016L176.749,172.781" style="fill:none;stroke:black;stroke-width:4.17px;"/>
    </g>
    <g>
        <path d="M158.733,208.9L158.733,237.4" style="fill:none;stroke:black;stroke-width:4.17px;"/>
        <path d="M174.056,223.183L143.363,223.183" style="fill:none;stroke:black;stroke-width:4.17px;"/>
        <path d="M168.111,213.737L149.276,232.572" style="fill:none;stroke:black;stroke-width:4.17px;"/>
        <path d="M148.33,212.777L169.096,233.543" style="fill:none;stroke:black;stroke-width:4.17px;"/>
    </g>
    <g>
        <path d="M36.208,264.254L36.208,292.754" style="fill:none;stroke:black;stroke-width:4.17px;"/>
        <path d="M51.531,278.537L20.838,278.537" style="fill:none;stroke:black;stroke-width:4.17px;"/>
        <path d="M45.585,269.091L26.75,287.926" style="fill:none;stroke:black;stroke-width:4.17px;"/>
        <path d="M25.805,268.131L46.57,288.897" style="fill:none;stroke:black;stroke-width:4.17px;"/>
    </g>
    <g>
        <path d="M142.671,263.651L142.671,292.152" style="fill:none;stroke:black;stroke-width:4.17px;"/>
        <path d="M157.994,277.934L127.301,277.934" style="fill:none;stroke:black;stroke-width:4.17px;"/>
        <path d="M152.048,268.488L133.213,287.323" style="fill:none;stroke:black;stroke-width:4.17px;"/>
        <path d="M132.268,267.528L153.033,288.294" style="fill:none;stroke:black;stroke-width:4.17px;"/>
    </g>
    <g>
        <path d="M26.127,178.037L26.127,206.537" style="fill:none;stroke:black;stroke-width:4.17px;"/>
        <path d="M41.45,192.32L10.757,192.32" style="fill:none;stroke:black;stroke-width:4.17px;"/>
        <path d="M35.505,182.874L16.67,201.709" style="fill:none;stroke:black;stroke-width:4.17px;"/>
        <path d="M15.724,181.913L36.49,202.679" style="fill:none;stroke:black;stroke-width:4.17px;"/>
    </g>
    <g>
        <path d="M255.151,258.308L255.151,286.809" style="fill:none;stroke:black;stroke-width:4.17px;"/>
        <path d="M270.474,272.592L239.781,272.592" style="fill:none;stroke:black;stroke-width:4.17px;"/>
        <path d="M264.528,263.145L245.693,281.98" style="fill:none;stroke:black;stroke-width:4.17px;"/>
        <path d="M244.748,262.185L265.514,282.951" style="fill:none;stroke:black;stroke-width:4.17px;"/>
    </g>
</svg>
