<?xml version="1.0" encoding="UTF-8" standalone="no"?>
<!DOCTYPE svg PUBLIC "-//W3C//DTD SVG 1.1//EN" "http://www.w3.org/Graphics/SVG/1.1/DTD/svg11.dtd">
<svg width="100%" height="100%" viewBox="0 0 301 301" version="1.1" xmlns="http://www.w3.org/2000/svg" xmlns:xlink="http://www.w3.org/1999/xlink" xml:space="preserve" xmlns:serif="http://www.serif.com/" style="fill-rule:evenodd;clip-rule:evenodd;stroke-linecap:round;stroke-linejoin:round;stroke-miterlimit:1.5;">
    <rect id="_75" serif:id="75" x="0.186" y="0.797" width="300" height="300" style="fill:none;"/>
    <path d="M276.953,150.049C289.051,141.945 300.243,119.901 286.344,99.668C274.278,82.103 248.743,82.267 219.281,96.472C235.642,80.466 188.738,36.58 171.567,72.136C188.738,36.58 114.434,4.162 108.846,59.587C59.668,30.306 42.128,83.9 64.482,106.789C18.657,83.9 -6.146,118.065 16.079,150.325" style="fill:none;stroke:black;stroke-width:12.5px;"/>
    <g>
        <path d="M80.806,143.32L80.806,171.821" style="fill:none;stroke:black;stroke-width:4.17px;"/>
        <path d="M96.129,157.604L65.436,157.604" style="fill:none;stroke:black;stroke-width:4.17px;"/>
        <path d="M90.184,148.157L71.349,166.993" style="fill:none;stroke:black;stroke-width:4.17px;"/>
        <path d="M70.403,147.197L91.169,167.963" style="fill:none;stroke:black;stroke-width:4.17px;"/>
    </g>
    <g>
        <path d="M81.924,225.439L81.924,253.94" style="fill:none;stroke:black;stroke-width:4.17px;"/>
        <path d="M97.247,239.723L66.554,239.723" style="fill:none;stroke:black;stroke-width:4.17px;"/>
        <path d="M91.302,230.277L72.467,249.112" style="fill:none;stroke:black;stroke-width:4.17px;"/>
        <path d="M71.521,229.316L92.287,250.082" style="fill:none;stroke:black;stroke-width:4.17px;"/>
    </g>
    <g>
        <path d="M235.721,154.578L235.721,183.078" style="fill:none;stroke:black;stroke-width:4.17px;"/>
        <path d="M251.044,168.861L220.351,168.861" style="fill:none;stroke:black;stroke-width:4.17px;"/>
        <path d="M245.099,159.415L226.263,178.25" style="fill:none;stroke:black;stroke-width:4.17px;"/>
        <path d="M225.318,158.455L246.084,179.22" style="fill:none;stroke:black;stroke-width:4.17px;"/>
    </g>
    <g>
        <path d="M229.423,212.282L229.423,240.783" style="fill:none;stroke:black;stroke-width:4.17px;"/>
        <path d="M244.746,226.566L214.053,226.566" style="fill:none;stroke:black;stroke-width:4.17px;"/>
        <path d="M238.801,217.119L219.966,235.955" style="fill:none;stroke:black;stroke-width:4.17px;"/>
        <path d="M219.02,216.159L239.786,236.925" style="fill:none;stroke:black;stroke-width:4.17px;"/>
    </g>
    <g>
        <path d="M176.129,144.411L176.129,172.912" style="fill:none;stroke:black;stroke-width:4.17px;"/>
        <path d="M191.452,158.695L160.759,158.695" style="fill:none;stroke:black;stroke-width:4.17px;"/>
        <path d="M185.506,149.248L166.671,168.083" style="fill:none;stroke:black;stroke-width:4.17px;"/>
        <path d="M165.726,148.288L186.492,169.054" style="fill:none;stroke:black;stroke-width:4.17px;"/>
    </g>
    <g>
        <path d="M117.475,179.471L117.475,207.971" style="fill:none;stroke:black;stroke-width:4.17px;"/>
        <path d="M132.798,193.754L102.105,193.754" style="fill:none;stroke:black;stroke-width:4.17px;"/>
        <path d="M126.852,184.308L108.017,203.143" style="fill:none;stroke:black;stroke-width:4.17px;"/>
        <path d="M107.072,183.348L127.837,204.113" style="fill:none;stroke:black;stroke-width:4.17px;"/>
    </g>
    <g>
        <path d="M200.354,183.738L200.354,212.238" style="fill:none;stroke:black;stroke-width:4.17px;"/>
        <path d="M215.677,198.021L184.984,198.021" style="fill:none;stroke:black;stroke-width:4.17px;"/>
        <path d="M209.731,188.575L190.896,207.41" style="fill:none;stroke:black;stroke-width:4.17px;"/>
        <path d="M189.951,187.615L210.717,208.38" style="fill:none;stroke:black;stroke-width:4.17px;"/>
    </g>
    <g>
        <path d="M267.185,189.419L267.185,217.919" style="fill:none;stroke:black;stroke-width:4.17px;"/>
        <path d="M282.508,203.702L251.815,203.702" style="fill:none;stroke:black;stroke-width:4.17px;"/>
        <path d="M276.562,194.256L257.727,213.091" style="fill:none;stroke:black;stroke-width:4.17px;"/>
        <path d="M256.782,193.296L277.548,214.062" style="fill:none;stroke:black;stroke-width:4.17px;"/>
    </g>
    <g>
        <path d="M182.486,235.053L182.486,263.553" style="fill:none;stroke:black;stroke-width:4.17px;"/>
        <path d="M197.809,249.336L167.116,249.336" style="fill:none;stroke:black;stroke-width:4.17px;"/>
        <path d="M191.863,239.89L173.028,258.725" style="fill:none;stroke:black;stroke-width:4.17px;"/>
        <path d="M172.083,238.93L192.848,259.696" style="fill:none;stroke:black;stroke-width:4.17px;"/>
    </g>
    <g>
        <path d="M229.197,258.196L229.197,286.697" style="fill:none;stroke:black;stroke-width:4.17px;"/>
        <path d="M244.52,272.48L213.827,272.48" style="fill:none;stroke:black;stroke-width:4.17px;"/>
        <path d="M238.574,263.033L219.739,281.868" style="fill:none;stroke:black;stroke-width:4.17px;"/>
        <path d="M218.794,262.073L239.56,282.839" style="fill:none;stroke:black;stroke-width:4.17px;"/>
    </g>
    <g>
        <path d="M133.34,232.401L133.34,260.902" style="fill:none;stroke:black;stroke-width:4.17px;"/>
        <path d="M148.663,246.685L117.971,246.685" style="fill:none;stroke:black;stroke-width:4.17px;"/>
        <path d="M142.718,237.238L123.883,256.073" style="fill:none;stroke:black;stroke-width:4.17px;"/>
        <path d="M122.938,236.278L143.703,257.044" style="fill:none;stroke:black;stroke-width:4.17px;"/>
    </g>
    <g>
        <path d="M71.922,186.244L71.922,214.745" style="fill:none;stroke:black;stroke-width:4.17px;"/>
        <path d="M87.245,200.528L56.552,200.528" style="fill:none;stroke:black;stroke-width:4.17px;"/>
        <path d="M81.3,191.082L62.464,209.917" style="fill:none;stroke:black;stroke-width:4.17px;"/>
        <path d="M61.519,190.121L82.285,210.887" style="fill:none;stroke:black;stroke-width:4.17px;"/>
    </g>
    <g>
        <path d="M32.629,217.241L32.629,245.741" style="fill:none;stroke:black;stroke-width:4.17px;"/>
        <path d="M47.952,231.524L17.26,231.524" style="fill:none;stroke:black;stroke-width:4.17px;"/>
        <path d="M42.007,222.078L23.172,240.913" style="fill:none;stroke:black;stroke-width:4.17px;"/>
        <path d="M22.227,221.118L42.992,241.883" style="fill:none;stroke:black;stroke-width:4.17px;"/>
    </g>
    <g>
        <path d="M95.892,264.913L95.892,293.413" style="fill:none;stroke:black;stroke-width:4.17px;"/>
        <path d="M111.215,279.196L80.522,279.196" style="fill:none;stroke:black;stroke-width:4.17px;"/>
        <path d="M105.27,269.75L86.435,288.585" style="fill:none;stroke:black;stroke-width:4.17px;"/>
        <path d="M85.489,268.79L106.255,289.555" style="fill:none;stroke:black;stroke-width:4.17px;"/>
    </g>
    <g>
        <path d="M159.207,190.472L159.207,218.972" style="fill:none;stroke:black;stroke-width:4.17px;"/>
        <path d="M174.531,204.755L143.838,204.755" style="fill:none;stroke:black;stroke-width:4.17px;"/>
        <path d="M168.585,195.309L149.75,214.144" style="fill:none;stroke:black;stroke-width:4.17px;"/>
        <path d="M148.805,194.349L169.57,215.114" style="fill:none;stroke:black;stroke-width:4.17px;"/>
    </g>
    <g>
        <path d="M36.014,264.588L36.014,293.088" style="fill:none;stroke:black;stroke-width:4.17px;"/>
        <path d="M51.337,278.871L20.644,278.871" style="fill:none;stroke:black;stroke-width:4.17px;"/>
        <path d="M45.392,269.425L26.557,288.26" style="fill:none;stroke:black;stroke-width:4.17px;"/>
        <path d="M25.611,268.465L46.377,289.23" style="fill:none;stroke:black;stroke-width:4.17px;"/>
    </g>
    <g>
        <path d="M163.008,267.857L163.008,296.357" style="fill:none;stroke:black;stroke-width:4.17px;"/>
        <path d="M178.331,282.14L147.638,282.14" style="fill:none;stroke:black;stroke-width:4.17px;"/>
        <path d="M172.386,272.694L153.551,291.529" style="fill:none;stroke:black;stroke-width:4.17px;"/>
        <path d="M152.605,271.734L173.371,292.499" style="fill:none;stroke:black;stroke-width:4.17px;"/>
    </g>
    <g>
        <path d="M25.933,178.37L25.933,206.871" style="fill:none;stroke:black;stroke-width:4.17px;"/>
        <path d="M41.256,192.654L10.563,192.654" style="fill:none;stroke:black;stroke-width:4.17px;"/>
        <path d="M35.311,183.208L16.476,202.043" style="fill:none;stroke:black;stroke-width:4.17px;"/>
        <path d="M15.53,182.247L36.296,203.013" style="fill:none;stroke:black;stroke-width:4.17px;"/>
    </g>
    <g>
        <path d="M269.176,247.155L269.176,275.656" style="fill:none;stroke:black;stroke-width:4.17px;"/>
        <path d="M284.499,261.439L253.806,261.439" style="fill:none;stroke:black;stroke-width:4.17px;"/>
        <path d="M278.554,251.993L259.718,270.828" style="fill:none;stroke:black;stroke-width:4.17px;"/>
        <path d="M258.773,251.032L279.539,271.798" style="fill:none;stroke:black;stroke-width:4.17px;"/>
    </g>
</svg>
