<?xml version="1.0" encoding="UTF-8" standalone="no"?>
<!DOCTYPE svg PUBLIC "-//W3C//DTD SVG 1.1//EN" "http://www.w3.org/Graphics/SVG/1.1/DTD/svg11.dtd">
<svg width="100%" height="100%" viewBox="0 0 301 301" version="1.1" xmlns="http://www.w3.org/2000/svg" xmlns:xlink="http://www.w3.org/1999/xlink" xml:space="preserve" xmlns:serif="http://www.serif.com/" style="fill-rule:evenodd;clip-rule:evenodd;stroke-linecap:round;stroke-linejoin:round;stroke-miterlimit:1.5;">
    <rect id="_77" serif:id="77" x="0.029" y="0.072" width="300" height="300" style="fill:none;"/>
    <path d="M276.796,149.324C288.894,141.22 300.087,119.176 286.187,98.943C274.121,81.378 248.587,81.542 219.124,95.747C235.485,79.741 188.581,35.855 171.41,71.411C188.581,35.855 114.277,3.437 108.689,58.862C59.511,29.581 41.971,83.175 64.325,106.064C18.5,83.175 -6.303,117.34 15.922,149.6" style="fill:none;stroke:black;stroke-width:12.5px;"/>
    <g>
        <path d="M80.649,142.595L80.649,171.096" style="fill:none;stroke:black;stroke-width:4.17px;"/>
        <path d="M95.972,156.879L65.279,156.879" style="fill:none;stroke:black;stroke-width:4.17px;"/>
        <path d="M90.027,147.432L71.192,166.268" style="fill:none;stroke:black;stroke-width:4.17px;"/>
        <path d="M70.246,146.472L91.012,167.238" style="fill:none;stroke:black;stroke-width:4.17px;"/>
    </g>
    <g>
        <path d="M175.972,143.686L175.972,172.187" style="fill:none;stroke:black;stroke-width:4.17px;"/>
        <path d="M191.295,157.97L160.602,157.97" style="fill:none;stroke:black;stroke-width:4.17px;"/>
        <path d="M185.35,148.523L166.514,167.358" style="fill:none;stroke:black;stroke-width:4.17px;"/>
        <path d="M165.569,147.563L186.335,168.329" style="fill:none;stroke:black;stroke-width:4.17px;"/>
    </g>
    <g>
        <path d="M267.028,188.694L267.028,217.194" style="fill:none;stroke:black;stroke-width:4.17px;"/>
        <path d="M282.351,202.977L251.658,202.977" style="fill:none;stroke:black;stroke-width:4.17px;"/>
        <path d="M276.406,193.531L257.571,212.366" style="fill:none;stroke:black;stroke-width:4.17px;"/>
        <path d="M256.625,192.571L277.391,213.336" style="fill:none;stroke:black;stroke-width:4.17px;"/>
    </g>
    <g>
        <path d="M159.051,189.747L159.051,218.247" style="fill:none;stroke:black;stroke-width:4.17px;"/>
        <path d="M174.374,204.03L143.681,204.03" style="fill:none;stroke:black;stroke-width:4.17px;"/>
        <path d="M168.429,194.584L149.593,213.419" style="fill:none;stroke:black;stroke-width:4.17px;"/>
        <path d="M148.648,193.624L169.414,214.389" style="fill:none;stroke:black;stroke-width:4.17px;"/>
    </g>
    <g>
        <path d="M57.416,234.381L57.416,262.881" style="fill:none;stroke:black;stroke-width:4.17px;"/>
        <path d="M72.739,248.664L42.046,248.664" style="fill:none;stroke:black;stroke-width:4.17px;"/>
        <path d="M66.794,239.218L47.959,258.053" style="fill:none;stroke:black;stroke-width:4.17px;"/>
        <path d="M47.013,238.258L67.779,259.023" style="fill:none;stroke:black;stroke-width:4.17px;"/>
    </g>
    <g>
        <path d="M150.357,255.204L150.357,283.704" style="fill:none;stroke:black;stroke-width:4.17px;"/>
        <path d="M165.68,269.487L134.987,269.487" style="fill:none;stroke:black;stroke-width:4.17px;"/>
        <path d="M159.735,260.041L140.9,278.876" style="fill:none;stroke:black;stroke-width:4.17px;"/>
        <path d="M139.954,259.081L160.72,279.846" style="fill:none;stroke:black;stroke-width:4.17px;"/>
    </g>
    <g>
        <path d="M25.776,177.645L25.776,206.146" style="fill:none;stroke:black;stroke-width:4.17px;"/>
        <path d="M41.099,191.929L10.407,191.929" style="fill:none;stroke:black;stroke-width:4.17px;"/>
        <path d="M35.154,182.482L16.319,201.318" style="fill:none;stroke:black;stroke-width:4.17px;"/>
        <path d="M15.374,181.522L36.139,202.288" style="fill:none;stroke:black;stroke-width:4.17px;"/>
    </g>
    <g>
        <path d="M226.978,233.037L226.978,261.537" style="fill:none;stroke:black;stroke-width:4.17px;"/>
        <path d="M242.301,247.32L211.608,247.32" style="fill:none;stroke:black;stroke-width:4.17px;"/>
        <path d="M236.355,237.874L217.52,256.709" style="fill:none;stroke:black;stroke-width:4.17px;"/>
        <path d="M216.575,236.914L237.34,257.68" style="fill:none;stroke:black;stroke-width:4.17px;"/>
    </g>
    <path d="M124.588,151.518C129.175,151.518 132.9,155.242 132.9,159.83C132.9,164.417 129.175,168.142 124.588,168.142C120.001,168.142 116.276,164.417 116.276,159.83C116.276,155.242 120.001,151.518 124.588,151.518ZM124.588,153.601C121.15,153.601 118.36,156.392 118.36,159.83C118.36,163.267 121.15,166.058 124.588,166.058C128.026,166.058 130.817,163.267 130.817,159.83C130.817,156.392 128.026,153.601 124.588,153.601Z"/>
    <path d="M72.723,198.92C77.311,198.92 81.035,202.645 81.035,207.232C81.035,211.819 77.311,215.544 72.723,215.544C68.136,215.544 64.412,211.819 64.412,207.232C64.412,202.645 68.136,198.92 72.723,198.92ZM72.723,201.004C69.286,201.004 66.495,203.794 66.495,207.232C66.495,210.67 69.286,213.461 72.723,213.461C76.161,213.461 78.952,210.67 78.952,207.232C78.952,203.794 76.161,201.004 72.723,201.004Z"/>
    <path d="M266.768,250.447C271.355,250.447 275.08,254.172 275.08,258.759C275.08,263.346 271.355,267.071 266.768,267.071C262.18,267.071 258.456,263.346 258.456,258.759C258.456,254.172 262.18,250.447 266.768,250.447ZM266.768,252.53C263.33,252.53 260.539,255.321 260.539,258.759C260.539,262.197 263.33,264.987 266.768,264.987C270.205,264.987 272.996,262.197 272.996,258.759C272.996,255.321 270.205,252.53 266.768,252.53Z"/>
    <path d="M190.934,271.139C195.521,271.139 199.246,274.863 199.246,279.451C199.246,284.038 195.521,287.763 190.934,287.763C186.346,287.763 182.622,284.038 182.622,279.451C182.622,274.863 186.346,271.139 190.934,271.139ZM190.934,273.222C187.496,273.222 184.705,276.013 184.705,279.451C184.705,282.888 187.496,285.679 190.934,285.679C194.371,285.679 197.162,282.888 197.162,279.451C197.162,276.013 194.371,273.222 190.934,273.222Z"/>
    <path d="M224.642,176.83C229.23,176.83 232.954,180.554 232.954,185.142C232.954,189.729 229.23,193.454 224.642,193.454C220.055,193.454 216.33,189.729 216.33,185.142C216.33,180.554 220.055,176.83 224.642,176.83ZM224.642,178.913C221.205,178.913 218.414,181.704 218.414,185.142C218.414,188.579 221.205,191.37 224.642,191.37C228.08,191.37 230.871,188.579 230.871,185.142C230.871,181.704 228.08,178.913 224.642,178.913Z"/>
    <path d="M194.925,213.84C199.512,213.84 203.237,217.564 203.237,222.151C203.237,226.739 199.512,230.463 194.925,230.463C190.338,230.463 186.613,226.739 186.613,222.151C186.613,217.564 190.338,213.84 194.925,213.84ZM194.925,215.923C191.487,215.923 188.696,218.714 188.696,222.151C188.696,225.589 191.487,228.38 194.925,228.38C198.363,228.38 201.153,225.589 201.153,222.151C201.153,218.714 198.363,215.923 194.925,215.923Z"/>
    <path d="M116.089,228.341C120.676,228.341 124.4,232.065 124.4,236.652C124.4,241.24 120.676,244.964 116.089,244.964C111.501,244.964 107.777,241.24 107.777,236.652C107.777,232.065 111.501,228.341 116.089,228.341ZM116.089,230.424C112.651,230.424 109.86,233.215 109.86,236.652C109.86,240.09 112.651,242.881 116.089,242.881C119.526,242.881 122.317,240.09 122.317,236.652C122.317,233.215 119.526,230.424 116.089,230.424Z"/>
    <path d="M84.772,273.602C89.36,273.602 93.084,277.327 93.084,281.914C93.084,286.501 89.36,290.226 84.772,290.226C80.185,290.226 76.46,286.501 76.46,281.914C76.46,277.327 80.185,273.602 84.772,273.602ZM84.772,275.686C81.335,275.686 78.544,278.476 78.544,281.914C78.544,285.352 81.335,288.143 84.772,288.143C88.21,288.143 91.001,285.352 91.001,281.914C91.001,278.476 88.21,275.686 84.772,275.686Z"/>
    <path d="M19.102,238.214C23.69,238.214 27.414,241.938 27.414,246.526C27.414,251.113 23.69,254.837 19.102,254.837C14.515,254.837 10.791,251.113 10.791,246.526C10.791,241.938 14.515,238.214 19.102,238.214ZM19.102,240.297C15.665,240.297 12.874,243.088 12.874,246.526C12.874,249.963 15.665,252.754 19.102,252.754C22.54,252.754 25.331,249.963 25.331,246.526C25.331,243.088 22.54,240.297 19.102,240.297Z"/>
</svg>
