<?xml version="1.0" encoding="UTF-8" standalone="no"?>
<!DOCTYPE svg PUBLIC "-//W3C//DTD SVG 1.1//EN" "http://www.w3.org/Graphics/SVG/1.1/DTD/svg11.dtd">
<svg width="100%" height="100%" viewBox="0 0 300 301" version="1.1" xmlns="http://www.w3.org/2000/svg" xmlns:xlink="http://www.w3.org/1999/xlink" xml:space="preserve" xmlns:serif="http://www.serif.com/" style="fill-rule:evenodd;clip-rule:evenodd;stroke-linecap:round;stroke-linejoin:round;stroke-miterlimit:1.5;">
    <rect id="_80" serif:id="80" x="0" y="0.065" width="300" height="300" style="fill:none;"/>
    <path d="M121.104,218.111C114.128,229.261 99.052,233.351 99.148,242.715C99.218,249.485 104.973,252.958 110.478,249.705C118.167,245.163 114.823,229.717 121.104,218.111Z"/>
    <path d="M210.139,145.194C210.361,144.942 210.607,144.706 210.874,144.488C212.348,143.284 211.981,141.521 211.202,139.776C210.162,137.447 208.282,135.123 205.952,133.001C197.216,125.045 183.256,117.448 170.525,132.53C162.539,141.991 153.181,132.228 159.516,125.864C171.51,113.819 161.125,110.487 152.576,105.909C148.884,103.932 144.649,102.468 140.354,101.759C136.085,101.054 131.756,101.095 127.84,102.121C120.451,104.056 114.532,109.495 113.258,120.037C113.015,122.053 111.807,123.824 110.02,124.788C108.234,125.752 106.09,125.788 104.272,124.885C87.941,116.769 75.861,117.051 68.374,122.274C58.387,129.241 57.917,144.519 67.819,152.98C70.158,154.979 70.694,158.383 69.083,161.004C67.472,163.625 64.193,164.684 61.354,163.501C42.015,155.439 27.105,156.454 19.381,163.295C12.673,169.238 13.196,179.342 21.343,189.211C23.539,191.871 23.162,195.814 20.502,198.01C17.841,200.206 13.899,199.829 11.703,197.169C3.813,187.612 1.237,177.782 2.533,169.459C3.914,160.585 9.61,153.094 19.013,148.887C26.65,145.47 37.027,144.261 49.486,146.763C45.79,134.1 49.983,119.863 61.222,112.022C70.203,105.757 84.152,103.288 102.607,110.481C104.537,104.631 107.657,100.137 111.472,96.774C116.098,92.697 121.896,90.313 128.112,89.359C131.944,57.684 158.95,33.107 191.652,33.107C226.977,33.107 255.657,61.786 255.657,97.112C255.657,111.399 250.965,124.6 243.04,135.255C249.681,134.45 255.85,134.466 261.391,135.328C271.361,136.878 279.455,141.102 285.099,147.96C301.757,168.197 288.657,190.315 274.158,198.42C271.147,200.104 267.336,199.026 265.653,196.015C263.97,193.004 265.048,189.193 268.059,187.51C277.173,182.414 285.92,168.625 275.448,155.904C270.626,150.046 262.997,147.428 253.746,147.175C244.71,146.928 234.236,148.953 222.983,152.926C221.063,153.604 219.121,154.338 217.16,155.127C214.294,156.28 211.016,155.167 209.445,152.508C208.05,150.146 208.373,147.193 210.139,145.194ZM223.538,137.55C235.484,128.114 243.157,113.502 243.157,97.112C243.157,68.685 220.078,45.607 191.652,45.607C165.894,45.607 144.528,64.555 140.742,89.261C146.952,90.049 153.088,92.004 158.478,94.89C167.206,99.564 173.757,106.434 176.119,114.249C188.77,109.021 204.419,114.699 214.368,123.76C219.019,127.995 222.175,132.825 223.538,137.55Z"/>
    <path d="M245.661,49.971L263.143,37.484" style="fill:none;stroke:black;stroke-width:12.5px;"/>
    <path d="M212.568,29.367L218.188,10.635" style="fill:none;stroke:black;stroke-width:12.5px;"/>
    <path d="M261.894,100.546L276.255,106.79" style="fill:none;stroke:black;stroke-width:12.5px;"/>
    <path d="M123.282,88.058L105.8,81.814" style="fill:none;stroke:black;stroke-width:12.5px;"/>
    <path d="M141.389,47.474L120.785,26.869" style="fill:none;stroke:black;stroke-width:12.5px;"/>
    <path d="M175.106,28.742L171.984,11.884" style="fill:none;stroke:black;stroke-width:12.5px;"/>
    <path d="M176.479,244.254C169.504,255.404 154.427,259.495 154.524,268.859C154.594,275.628 160.348,279.102 165.853,275.849C173.542,271.306 170.198,255.861 176.479,244.254Z"/>
    <path d="M68.726,251.729C61.751,262.879 46.674,266.969 46.771,276.333C46.841,283.103 52.595,286.576 58.1,283.323C65.789,278.781 62.445,263.335 68.726,251.729Z"/>
    <path d="M34.928,212.248C27.952,223.398 12.876,227.488 12.972,236.852C13.042,243.622 18.797,247.095 24.302,243.842C31.991,239.3 28.647,223.854 34.928,212.248Z"/>
    <path d="M242.582,211.44C235.607,222.591 220.531,226.681 220.627,236.045C220.697,242.815 226.452,246.288 231.957,243.035C239.645,238.492 236.302,223.047 242.582,211.44Z"/>
    <path d="M266.298,260.26C259.323,271.41 244.246,275.501 244.343,284.865C244.412,291.634 250.167,295.107 255.672,291.855C263.361,287.312 260.017,271.867 266.298,260.26Z"/>
</svg>
