<?xml version="1.0" encoding="UTF-8" standalone="no"?>
<!DOCTYPE svg PUBLIC "-//W3C//DTD SVG 1.1//EN" "http://www.w3.org/Graphics/SVG/1.1/DTD/svg11.dtd">
<svg width="100%" height="100%" viewBox="0 0 301 301" version="1.1" xmlns="http://www.w3.org/2000/svg" xmlns:xlink="http://www.w3.org/1999/xlink" xml:space="preserve" xmlns:serif="http://www.serif.com/" style="fill-rule:evenodd;clip-rule:evenodd;stroke-linecap:round;stroke-linejoin:round;stroke-miterlimit:1.5;">
    <rect id="_81" serif:id="81" x="0.866" y="0.194" width="300" height="300" style="fill:none;"/>
    <path d="M211.005,145.324C211.227,145.072 211.472,144.836 211.739,144.618C213.213,143.414 212.847,141.651 212.068,139.906C211.027,137.577 209.147,135.253 206.817,133.131C198.081,125.175 184.121,117.578 171.39,132.66C163.405,142.121 154.047,132.358 160.382,125.994C172.375,113.948 161.99,110.617 153.442,106.039C149.75,104.062 145.515,102.597 141.219,101.888C136.951,101.184 132.622,101.225 128.706,102.251C121.317,104.186 115.397,109.625 114.124,120.167C113.88,122.183 112.673,123.954 110.886,124.918C109.099,125.882 106.956,125.918 105.137,125.014C88.807,116.899 76.727,117.181 69.24,122.404C59.253,129.371 58.783,144.649 68.684,153.11C71.023,155.109 71.56,158.513 69.949,161.134C68.338,163.755 65.059,164.814 62.219,163.63C42.88,155.569 27.97,156.584 20.247,163.425C13.538,169.368 14.061,179.472 22.208,189.341C24.404,192.001 24.027,195.943 21.367,198.139C18.707,200.335 14.764,199.959 12.568,197.298C4.679,187.741 2.102,177.912 3.398,169.589C4.78,160.715 10.476,153.224 19.879,149.017C27.516,145.6 37.892,144.391 50.351,146.893C46.655,134.23 50.848,119.993 62.088,112.152C71.069,105.887 85.018,103.418 103.473,110.611C105.402,104.761 108.522,100.267 112.338,96.904C116.964,92.827 122.761,90.443 128.978,89.489C132.81,57.814 159.816,33.237 192.517,33.237C227.843,33.237 256.522,61.916 256.522,97.242C256.522,111.529 251.831,124.729 243.906,135.385C250.546,134.58 256.716,134.596 262.256,135.458C272.227,137.008 280.32,141.232 285.965,148.089C302.623,168.327 289.523,190.445 275.024,198.55C272.013,200.234 268.202,199.156 266.519,196.145C264.835,193.134 265.913,189.323 268.924,187.639C278.039,182.544 286.785,168.755 276.314,156.033C271.492,150.176 263.862,147.558 254.611,147.305C245.575,147.058 235.102,149.083 223.848,153.056C221.929,153.734 219.987,154.468 218.025,155.257C215.16,156.41 211.882,155.297 210.311,152.638C208.916,150.276 209.238,147.323 211.005,145.324ZM224.404,137.68C236.35,128.244 244.022,113.632 244.022,97.242C244.022,68.815 220.944,45.737 192.517,45.737C166.76,45.737 145.393,64.685 141.608,89.391C147.817,90.179 153.954,92.134 159.343,95.02C168.072,99.694 174.622,106.564 176.985,114.379C189.635,109.151 205.285,114.829 215.234,123.89C219.885,128.125 223.041,132.955 224.404,137.68Z"/>
    <path d="M246.526,50.101L264.009,37.613" style="fill:none;stroke:black;stroke-width:12.5px;"/>
    <path d="M213.434,29.497L219.053,10.765" style="fill:none;stroke:black;stroke-width:12.5px;"/>
    <path d="M262.76,100.676L277.121,106.92" style="fill:none;stroke:black;stroke-width:12.5px;"/>
    <path d="M124.148,88.188L106.665,81.944" style="fill:none;stroke:black;stroke-width:12.5px;"/>
    <path d="M142.255,47.604L121.65,26.999" style="fill:none;stroke:black;stroke-width:12.5px;"/>
    <path d="M175.971,28.872L172.849,12.014" style="fill:none;stroke:black;stroke-width:12.5px;"/>
    <path d="M82.009,199.041C75.034,210.192 59.957,214.282 60.054,223.646C60.124,230.415 65.878,233.889 71.383,230.636C79.072,226.093 75.728,210.648 82.009,199.041Z"/>
    <path d="M143.179,204.491C136.204,215.642 121.128,219.732 121.224,229.096C121.294,235.865 127.048,239.339 132.554,236.086C140.242,231.543 136.899,216.098 143.179,204.491Z"/>
    <path d="M193.703,230.409C186.728,241.559 171.651,245.649 171.747,255.013C171.817,261.783 177.572,265.256 183.077,262.004C190.766,257.461 187.422,242.015 193.703,230.409Z"/>
    <path d="M150.253,256.1C143.278,267.251 128.201,271.341 128.298,280.705C128.367,287.475 134.122,290.948 139.627,287.695C147.316,283.152 143.972,267.707 150.253,256.1Z"/>
    <path d="M94.774,242.554C87.799,253.705 72.723,257.795 72.819,267.159C72.889,273.929 78.643,277.402 84.149,274.149C91.837,269.606 88.494,254.161 94.774,242.554Z"/>
    <path d="M35.793,212.378C28.818,223.528 13.741,227.618 13.838,236.982C13.908,243.752 19.662,247.225 25.168,243.972C32.856,239.43 29.513,223.984 35.793,212.378Z"/>
    <path d="M232.687,198.302C225.712,209.453 210.635,213.543 210.732,222.907C210.801,229.676 216.556,233.15 222.061,229.897C229.75,225.354 226.406,209.909 232.687,198.302Z"/>
    <path d="M50.297,253.492C43.321,264.642 28.245,268.732 28.341,278.096C28.411,284.866 34.166,288.339 39.671,285.087C47.359,280.544 44.016,265.098 50.297,253.492Z"/>
    <path d="M232.186,250.739C225.211,261.889 210.134,265.979 210.23,275.343C210.3,282.113 216.055,285.586 221.56,282.333C229.249,277.791 225.905,262.345 232.186,250.739Z"/>
    <path d="M267.163,260.39C260.188,271.54 245.112,275.631 245.208,284.994C245.278,291.764 251.032,295.237 256.538,291.985C264.226,287.442 260.883,271.997 267.163,260.39Z"/>
    <path d="M286.188,217.406C279.213,228.556 264.136,232.647 264.232,242.01C264.302,248.78 270.057,252.253 275.562,249.001C283.251,244.458 279.907,229.013 286.188,217.406Z"/>
</svg>
