<?xml version="1.0" encoding="UTF-8" standalone="no"?>
<!DOCTYPE svg PUBLIC "-//W3C//DTD SVG 1.1//EN" "http://www.w3.org/Graphics/SVG/1.1/DTD/svg11.dtd">
<svg width="100%" height="100%" viewBox="0 0 301 301" version="1.1" xmlns="http://www.w3.org/2000/svg" xmlns:xlink="http://www.w3.org/1999/xlink" xml:space="preserve" xmlns:serif="http://www.serif.com/" style="fill-rule:evenodd;clip-rule:evenodd;stroke-linecap:round;stroke-linejoin:round;stroke-miterlimit:1.5;">
    <rect id="_82" serif:id="82" x="0.663" y="0.877" width="300" height="300" style="fill:none;"/>
    <path d="M67.76,193.433C60.785,204.583 45.708,208.673 45.805,218.037C45.874,224.807 51.629,228.28 57.134,225.027C64.823,220.485 61.479,205.039 67.76,193.433Z"/>
    <path d="M142.977,205.174C136.002,216.325 120.925,220.415 121.022,229.779C121.091,236.548 126.846,240.022 132.351,236.769C140.04,232.226 136.696,216.781 142.977,205.174Z"/>
    <path d="M111.496,200.605C104.52,211.756 89.444,215.846 89.54,225.21C89.61,231.98 95.365,235.453 100.87,232.2C108.558,227.657 105.215,212.212 111.496,200.605Z"/>
    <path d="M210.802,146.007C211.024,145.755 211.27,145.519 211.537,145.301C213.011,144.097 212.644,142.334 211.865,140.589C210.825,138.26 208.945,135.936 206.615,133.814C197.879,125.858 183.919,118.261 171.188,133.343C163.202,142.804 153.844,133.04 160.179,126.677C172.173,114.631 161.788,111.3 153.239,106.722C149.547,104.745 145.312,103.28 141.017,102.571C136.748,101.867 132.419,101.908 128.503,102.934C121.114,104.869 115.195,110.308 113.921,120.85C113.678,122.866 112.47,124.637 110.683,125.601C108.897,126.565 106.753,126.601 104.935,125.697C88.604,117.582 76.524,117.864 69.037,123.087C59.05,130.054 58.58,145.332 68.482,153.793C70.821,155.792 71.357,159.196 69.746,161.817C68.135,164.438 64.856,165.497 62.017,164.313C42.678,156.252 27.768,157.266 20.044,164.108C13.336,170.051 13.859,180.155 22.006,190.024C24.202,192.684 23.825,196.626 21.165,198.822C18.504,201.018 14.562,200.642 12.366,197.981C4.476,188.424 1.9,178.595 3.196,170.272C4.577,161.398 10.273,153.907 19.676,149.7C27.313,146.283 37.69,145.074 50.149,147.576C46.453,134.913 50.646,120.676 61.885,112.835C70.866,106.57 84.815,104.101 103.27,111.294C105.2,105.444 108.32,100.95 112.135,97.587C116.761,93.51 122.559,91.126 128.775,90.172C132.607,58.497 159.613,33.92 192.315,33.92C227.64,33.92 256.32,62.599 256.32,97.925C256.32,112.212 251.628,125.412 243.703,136.068C250.344,135.263 256.513,135.279 262.054,136.141C272.024,137.691 280.118,141.915 285.762,148.772C302.42,169.01 289.321,191.128 274.821,199.233C271.81,200.916 267.999,199.838 266.316,196.828C264.633,193.817 265.711,190.006 268.722,188.322C277.836,183.227 286.583,169.438 276.111,156.716C271.289,150.858 263.66,148.241 254.409,147.988C245.373,147.741 234.899,149.766 223.646,153.739C221.726,154.417 219.784,155.151 217.823,155.94C214.957,157.093 211.679,155.98 210.108,153.321C208.713,150.959 209.036,148.006 210.802,146.007ZM224.201,138.363C236.148,128.927 243.82,114.315 243.82,97.925C243.82,69.498 220.741,46.42 192.315,46.42C166.557,46.42 145.191,65.368 141.405,90.074C147.615,90.862 153.751,92.817 159.141,95.703C167.869,100.377 174.42,107.247 176.782,115.062C189.433,109.834 205.082,115.512 215.031,124.572C219.682,128.808 222.838,133.638 224.201,138.363Z"/>
    <path d="M246.324,50.784L263.806,38.296" style="fill:none;stroke:black;stroke-width:12.5px;"/>
    <path d="M213.231,30.18L218.851,11.448" style="fill:none;stroke:black;stroke-width:12.5px;"/>
    <path d="M262.557,101.359L276.918,107.602" style="fill:none;stroke:black;stroke-width:12.5px;"/>
    <path d="M123.945,88.871L106.463,82.627" style="fill:none;stroke:black;stroke-width:12.5px;"/>
    <path d="M142.052,48.286L121.448,27.682" style="fill:none;stroke:black;stroke-width:12.5px;"/>
    <path d="M175.769,29.555L172.647,12.697" style="fill:none;stroke:black;stroke-width:12.5px;"/>
    <path d="M81.564,218.717C74.589,229.867 59.512,233.957 59.608,243.321C59.678,250.091 65.433,253.564 70.938,250.312C78.627,245.769 75.283,230.323 81.564,218.717Z"/>
    <path d="M196.516,243.43C189.54,254.581 174.464,258.671 174.56,268.035C174.63,274.804 180.385,278.278 185.89,275.025C193.578,270.482 190.235,255.037 196.516,243.43Z"/>
    <path d="M181.802,201.746C174.827,212.896 159.75,216.987 159.846,226.351C159.916,233.12 165.671,236.593 171.176,233.341C178.865,228.798 175.521,213.353 181.802,201.746Z"/>
    <path d="M160.518,260.519C153.543,271.669 138.466,275.759 138.563,285.123C138.632,291.893 144.387,295.366 149.892,292.114C157.581,287.571 154.237,272.126 160.518,260.519Z"/>
    <path d="M105.045,257.46C98.07,268.61 82.994,272.701 83.09,282.064C83.16,288.834 88.915,292.307 94.42,289.055C102.108,284.512 98.765,269.067 105.045,257.46Z"/>
    <path d="M35.591,213.06C28.616,224.211 13.539,228.301 13.635,237.665C13.705,244.435 19.46,247.908 24.965,244.655C32.654,240.113 29.31,224.667 35.591,213.06Z"/>
    <path d="M144.218,238.794C137.243,249.944 122.166,254.034 122.262,263.398C122.332,270.168 128.087,273.641 133.592,270.388C141.281,265.846 137.937,250.4 144.218,238.794Z"/>
    <path d="M223.35,199.512C216.375,210.662 201.298,214.753 201.395,224.117C201.465,230.886 207.219,234.359 212.725,231.107C220.413,226.564 217.07,211.119 223.35,199.512Z"/>
    <path d="M50.094,254.175C43.119,265.325 28.042,269.415 28.139,278.779C28.209,285.549 33.963,289.022 39.468,285.769C47.157,281.227 43.813,265.781 50.094,254.175Z"/>
    <path d="M228.848,261.738C221.872,272.888 206.796,276.979 206.892,286.343C206.962,293.112 212.717,296.586 218.222,293.333C225.911,288.79 222.567,273.345 228.848,261.738Z"/>
    <path d="M250.652,221.744C243.676,232.895 228.6,236.985 228.696,246.349C228.766,253.118 234.521,256.592 240.026,253.339C247.714,248.796 244.371,233.351 250.652,221.744Z"/>
    <path d="M266.961,261.073C259.986,272.223 244.909,276.313 245.006,285.677C245.075,292.447 250.83,295.92 256.335,292.668C264.024,288.125 260.68,272.679 266.961,261.073Z"/>
    <path d="M285.985,218.089C279.01,229.239 263.933,233.329 264.03,242.693C264.1,249.463 269.854,252.936 275.36,249.684C283.048,245.141 279.705,229.695 285.985,218.089Z"/>
</svg>
