<?xml version="1.0" encoding="UTF-8" standalone="no"?>
<!DOCTYPE svg PUBLIC "-//W3C//DTD SVG 1.1//EN" "http://www.w3.org/Graphics/SVG/1.1/DTD/svg11.dtd">
<svg width="100%" height="100%" viewBox="0 0 301 301" version="1.1" xmlns="http://www.w3.org/2000/svg" xmlns:xlink="http://www.w3.org/1999/xlink" xml:space="preserve" xmlns:serif="http://www.serif.com/" style="fill-rule:evenodd;clip-rule:evenodd;stroke-linecap:round;stroke-linejoin:round;stroke-miterlimit:1.5;">
    <rect id="_85" serif:id="85" x="0.812" y="0.192" width="300" height="300" style="fill:none;"/>
    <g>
        <path d="M158.866,185.688L158.866,214.188" style="fill:none;stroke:black;stroke-width:4.17px;"/>
        <path d="M174.189,199.971L143.496,199.971" style="fill:none;stroke:black;stroke-width:4.17px;"/>
        <path d="M168.243,190.525L149.408,209.36" style="fill:none;stroke:black;stroke-width:4.17px;"/>
        <path d="M148.463,189.565L169.229,210.331" style="fill:none;stroke:black;stroke-width:4.17px;"/>
    </g>
    <g>
        <path d="M63.683,225.166L63.683,253.667" style="fill:none;stroke:black;stroke-width:4.17px;"/>
        <path d="M79.007,239.45L48.314,239.45" style="fill:none;stroke:black;stroke-width:4.17px;"/>
        <path d="M73.061,230.003L54.226,248.838" style="fill:none;stroke:black;stroke-width:4.17px;"/>
        <path d="M53.281,229.043L74.046,249.809" style="fill:none;stroke:black;stroke-width:4.17px;"/>
    </g>
    <g>
        <path d="M239.883,216.539L239.883,245.04" style="fill:none;stroke:black;stroke-width:4.17px;"/>
        <path d="M255.206,230.823L224.513,230.823" style="fill:none;stroke:black;stroke-width:4.17px;"/>
        <path d="M249.261,221.376L230.426,240.212" style="fill:none;stroke:black;stroke-width:4.17px;"/>
        <path d="M229.48,220.416L250.246,241.182" style="fill:none;stroke:black;stroke-width:4.17px;"/>
    </g>
    <g>
        <path d="M146.942,255.979L146.942,284.48" style="fill:none;stroke:black;stroke-width:4.17px;"/>
        <path d="M162.265,270.263L131.573,270.263" style="fill:none;stroke:black;stroke-width:4.17px;"/>
        <path d="M156.32,260.816L137.485,279.652" style="fill:none;stroke:black;stroke-width:4.17px;"/>
        <path d="M136.539,259.856L157.305,280.622" style="fill:none;stroke:black;stroke-width:4.17px;"/>
    </g>
    <path d="M210.951,145.321C211.173,145.07 211.418,144.833 211.686,144.615C213.16,143.412 212.793,141.648 212.014,139.904C210.973,137.574 209.093,135.25 206.763,133.129C198.027,125.172 184.067,117.576 171.336,132.658C163.351,142.118 153.993,132.355 160.328,125.992C172.321,113.946 161.936,110.614 153.388,106.037C149.696,104.059 145.461,102.595 141.166,101.886C136.897,101.181 132.568,101.223 128.652,102.248C121.263,104.183 115.343,109.622 114.07,120.164C113.826,122.18 112.619,123.952 110.832,124.916C109.045,125.879 106.902,125.915 105.084,125.012C88.753,116.897 76.673,117.178 69.186,122.402C59.199,129.369 58.729,144.646 68.631,153.108C70.969,155.107 71.506,158.51 69.895,161.132C68.284,163.753 65.005,164.812 62.165,163.628C42.826,155.566 27.916,156.581 20.193,163.423C13.484,169.365 14.007,179.469 22.154,189.338C24.35,191.998 23.973,195.941 21.313,198.137C18.653,200.333 14.711,199.956 12.514,197.296C4.625,187.739 2.048,177.91 3.344,169.586C4.726,160.712 10.422,153.222 19.825,149.015C27.462,145.598 37.839,144.388 50.297,146.891C46.601,134.227 50.794,119.99 62.034,112.15C71.015,105.885 84.964,103.415 103.419,110.608C105.348,104.759 108.469,100.264 112.284,96.901C116.91,92.824 122.708,90.44 128.924,89.486C132.756,57.811 159.762,33.234 192.463,33.234C227.789,33.234 256.468,61.914 256.468,97.239C256.468,111.527 251.777,124.727 243.852,135.382C250.492,134.577 256.662,134.594 262.202,135.455C272.173,137.006 280.266,141.23 285.911,148.087C302.569,168.324 289.469,190.442 274.97,198.548C271.959,200.231 268.148,199.153 266.465,196.142C264.782,193.131 265.86,189.32 268.87,187.637C277.985,182.542 286.731,168.753 276.26,156.031C271.438,150.173 263.809,147.555 254.558,147.302C245.521,147.055 235.048,149.081 223.795,153.053C221.875,153.731 219.933,154.465 217.971,155.255C215.106,156.408 211.828,155.295 210.257,152.636C208.862,150.274 209.185,147.321 210.951,145.321ZM224.35,137.677C236.296,128.241 243.968,113.629 243.968,97.239C243.968,68.813 220.89,45.734 192.463,45.734C166.706,45.734 145.339,64.682 141.554,89.388C147.763,90.176 153.9,92.131 159.289,95.017C168.018,99.692 174.568,106.562 176.931,114.376C189.581,109.149 205.231,114.826 215.18,123.887C219.831,128.122 222.987,132.953 224.35,137.677Z"/>
    <path d="M246.472,50.098L263.955,37.611" style="fill:none;stroke:black;stroke-width:12.5px;"/>
    <path d="M213.38,29.494L219,10.763" style="fill:none;stroke:black;stroke-width:12.5px;"/>
    <path d="M262.706,100.673L277.067,106.917" style="fill:none;stroke:black;stroke-width:12.5px;"/>
    <path d="M124.094,88.186L106.611,81.942" style="fill:none;stroke:black;stroke-width:12.5px;"/>
    <path d="M142.201,47.601L121.596,26.996" style="fill:none;stroke:black;stroke-width:12.5px;"/>
    <path d="M175.917,28.87L172.796,12.011" style="fill:none;stroke:black;stroke-width:12.5px;"/>
</svg>
