<?xml version="1.0" encoding="UTF-8" standalone="no"?>
<!DOCTYPE svg PUBLIC "-//W3C//DTD SVG 1.1//EN" "http://www.w3.org/Graphics/SVG/1.1/DTD/svg11.dtd">
<svg width="100%" height="100%" viewBox="0 0 301 301" version="1.1" xmlns="http://www.w3.org/2000/svg" xmlns:xlink="http://www.w3.org/1999/xlink" xml:space="preserve" xmlns:serif="http://www.serif.com/" style="fill-rule:evenodd;clip-rule:evenodd;stroke-linecap:round;stroke-linejoin:round;stroke-miterlimit:1.5;">
    <rect id="_86" serif:id="86" x="0.638" y="0.716" width="300" height="300" style="fill:none;"/>
    <g>
        <path d="M82.376,225.358L82.376,253.859" style="fill:none;stroke:black;stroke-width:4.17px;"/>
        <path d="M97.699,239.642L67.006,239.642" style="fill:none;stroke:black;stroke-width:4.17px;"/>
        <path d="M91.754,230.195L72.918,249.03" style="fill:none;stroke:black;stroke-width:4.17px;"/>
        <path d="M71.973,229.235L92.739,250.001" style="fill:none;stroke:black;stroke-width:4.17px;"/>
    </g>
    <g>
        <path d="M229.875,212.201L229.875,240.701" style="fill:none;stroke:black;stroke-width:4.17px;"/>
        <path d="M245.198,226.484L214.505,226.484" style="fill:none;stroke:black;stroke-width:4.17px;"/>
        <path d="M239.252,217.038L220.417,235.873" style="fill:none;stroke:black;stroke-width:4.17px;"/>
        <path d="M219.472,216.078L240.238,236.843" style="fill:none;stroke:black;stroke-width:4.17px;"/>
    </g>
    <g>
        <path d="M164.155,202.15L164.155,230.65" style="fill:none;stroke:black;stroke-width:4.17px;"/>
        <path d="M179.479,216.433L148.786,216.433" style="fill:none;stroke:black;stroke-width:4.17px;"/>
        <path d="M173.533,206.987L154.698,225.822" style="fill:none;stroke:black;stroke-width:4.17px;"/>
        <path d="M153.753,206.027L174.518,226.792" style="fill:none;stroke:black;stroke-width:4.17px;"/>
    </g>
    <g>
        <path d="M182.937,234.971L182.937,263.472" style="fill:none;stroke:black;stroke-width:4.17px;"/>
        <path d="M198.26,249.255L167.567,249.255" style="fill:none;stroke:black;stroke-width:4.17px;"/>
        <path d="M192.315,239.809L173.48,258.644" style="fill:none;stroke:black;stroke-width:4.17px;"/>
        <path d="M172.534,238.848L193.3,259.614" style="fill:none;stroke:black;stroke-width:4.17px;"/>
    </g>
    <g>
        <path d="M229.648,258.115L229.648,286.615" style="fill:none;stroke:black;stroke-width:4.17px;"/>
        <path d="M244.971,272.398L214.279,272.398" style="fill:none;stroke:black;stroke-width:4.17px;"/>
        <path d="M239.026,262.952L220.191,281.787" style="fill:none;stroke:black;stroke-width:4.17px;"/>
        <path d="M219.245,261.992L240.011,282.757" style="fill:none;stroke:black;stroke-width:4.17px;"/>
    </g>
    <g>
        <path d="M133.792,232.32L133.792,260.82" style="fill:none;stroke:black;stroke-width:4.17px;"/>
        <path d="M149.115,246.603L118.422,246.603" style="fill:none;stroke:black;stroke-width:4.17px;"/>
        <path d="M143.17,237.157L124.335,255.992" style="fill:none;stroke:black;stroke-width:4.17px;"/>
        <path d="M123.389,236.197L144.155,256.962" style="fill:none;stroke:black;stroke-width:4.17px;"/>
    </g>
    <g>
        <path d="M107.163,196.774L107.163,225.274" style="fill:none;stroke:black;stroke-width:4.17px;"/>
        <path d="M122.486,211.057L91.793,211.057" style="fill:none;stroke:black;stroke-width:4.17px;"/>
        <path d="M116.541,201.611L97.706,220.446" style="fill:none;stroke:black;stroke-width:4.17px;"/>
        <path d="M96.76,200.651L117.526,221.416" style="fill:none;stroke:black;stroke-width:4.17px;"/>
    </g>
    <g>
        <path d="M33.081,217.159L33.081,245.66" style="fill:none;stroke:black;stroke-width:4.17px;"/>
        <path d="M48.404,231.443L17.711,231.443" style="fill:none;stroke:black;stroke-width:4.17px;"/>
        <path d="M42.459,221.996L23.624,240.831" style="fill:none;stroke:black;stroke-width:4.17px;"/>
        <path d="M22.678,221.036L43.444,241.802" style="fill:none;stroke:black;stroke-width:4.17px;"/>
    </g>
    <g>
        <path d="M96.344,264.831L96.344,293.332" style="fill:none;stroke:black;stroke-width:4.17px;"/>
        <path d="M111.667,279.115L80.974,279.115" style="fill:none;stroke:black;stroke-width:4.17px;"/>
        <path d="M105.721,269.668L86.886,288.503" style="fill:none;stroke:black;stroke-width:4.17px;"/>
        <path d="M85.941,268.708L106.707,289.474" style="fill:none;stroke:black;stroke-width:4.17px;"/>
    </g>
    <g>
        <path d="M36.466,264.506L36.466,293.007" style="fill:none;stroke:black;stroke-width:4.17px;"/>
        <path d="M51.789,278.79L21.096,278.79" style="fill:none;stroke:black;stroke-width:4.17px;"/>
        <path d="M45.843,269.343L27.008,288.179" style="fill:none;stroke:black;stroke-width:4.17px;"/>
        <path d="M26.063,268.383L46.828,289.149" style="fill:none;stroke:black;stroke-width:4.17px;"/>
    </g>
    <g>
        <path d="M163.46,267.775L163.46,296.276" style="fill:none;stroke:black;stroke-width:4.17px;"/>
        <path d="M178.783,282.059L148.09,282.059" style="fill:none;stroke:black;stroke-width:4.17px;"/>
        <path d="M172.838,272.612L154.002,291.448" style="fill:none;stroke:black;stroke-width:4.17px;"/>
        <path d="M153.057,271.652L173.823,292.418" style="fill:none;stroke:black;stroke-width:4.17px;"/>
    </g>
    <g>
        <path d="M269.627,247.074L269.627,275.575" style="fill:none;stroke:black;stroke-width:4.17px;"/>
        <path d="M284.95,261.358L254.258,261.358" style="fill:none;stroke:black;stroke-width:4.17px;"/>
        <path d="M279.005,251.911L260.17,270.746" style="fill:none;stroke:black;stroke-width:4.17px;"/>
        <path d="M259.225,250.951L279.99,271.717" style="fill:none;stroke:black;stroke-width:4.17px;"/>
    </g>
    <path d="M210.777,145.845C210.999,145.594 211.244,145.357 211.512,145.139C212.986,143.936 212.619,142.172 211.84,140.427C210.799,138.098 208.919,135.774 206.59,133.652C197.853,125.696 183.893,118.1 171.163,133.182C163.177,142.642 153.819,132.879 160.154,126.516C172.147,114.47 161.762,111.138 153.214,106.56C149.522,104.583 145.287,103.119 140.992,102.41C136.723,101.705 132.394,101.746 128.478,102.772C121.089,104.707 115.169,110.146 113.896,120.688C113.652,122.704 112.445,124.476 110.658,125.439C108.871,126.403 106.728,126.439 104.91,125.536C88.579,117.421 76.499,117.702 69.012,122.925C59.025,129.893 58.555,145.17 68.457,153.632C70.796,155.63 71.332,159.034 69.721,161.655C68.11,164.277 64.831,165.336 61.991,164.152C42.652,156.09 27.742,157.105 20.019,163.947C13.31,169.889 13.833,179.993 21.98,189.862C24.176,192.522 23.799,196.465 21.139,198.661C18.479,200.857 14.537,200.48 12.341,197.82C4.451,188.263 1.874,178.434 3.17,170.11C4.552,161.236 10.248,153.746 19.651,149.539C27.288,146.121 37.665,144.912 50.123,147.415C46.427,134.751 50.621,120.514 61.86,112.674C70.841,106.408 84.79,103.939 103.245,111.132C105.174,105.282 108.295,100.788 112.11,97.425C116.736,93.348 122.534,90.964 128.75,90.01C132.582,58.335 159.588,33.758 192.29,33.758C227.615,33.758 256.295,62.438 256.295,97.763C256.295,112.05 251.603,125.251 243.678,135.906C250.319,135.101 256.488,135.117 262.028,135.979C271.999,137.53 280.092,141.753 285.737,148.611C302.395,168.848 289.295,190.966 274.796,199.072C271.785,200.755 267.974,199.677 266.291,196.666C264.608,193.655 265.686,189.844 268.697,188.161C277.811,183.065 286.557,169.276 276.086,156.555C271.264,150.697 263.635,148.079 254.384,147.826C245.347,147.579 234.874,149.605 223.621,153.577C221.701,154.255 219.759,154.989 217.797,155.779C214.932,156.931 211.654,155.819 210.083,153.159C208.688,150.797 209.011,147.845 210.777,145.845ZM224.176,138.201C236.122,128.765 243.795,114.153 243.795,97.763C243.795,69.337 220.716,46.258 192.29,46.258C166.532,46.258 145.165,65.206 141.38,89.912C147.589,90.7 153.726,92.655 159.115,95.541C167.844,100.215 174.394,107.086 176.757,114.9C189.408,109.673 205.057,115.35 215.006,124.411C219.657,128.646 222.813,133.476 224.176,138.201Z"/>
    <path d="M246.298,50.622L263.781,38.135" style="fill:none;stroke:black;stroke-width:12.5px;"/>
    <path d="M213.206,30.018L218.826,11.286" style="fill:none;stroke:black;stroke-width:12.5px;"/>
    <path d="M262.532,101.197L276.893,107.441" style="fill:none;stroke:black;stroke-width:12.5px;"/>
    <path d="M123.92,88.709L106.437,82.466" style="fill:none;stroke:black;stroke-width:12.5px;"/>
    <path d="M142.027,48.125L121.423,27.52" style="fill:none;stroke:black;stroke-width:12.5px;"/>
    <path d="M175.743,29.393L172.622,12.535" style="fill:none;stroke:black;stroke-width:12.5px;"/>
</svg>
