<?xml version="1.0" encoding="UTF-8" standalone="no"?>
<!DOCTYPE svg PUBLIC "-//W3C//DTD SVG 1.1//EN" "http://www.w3.org/Graphics/SVG/1.1/DTD/svg11.dtd">
<svg width="100%" height="100%" viewBox="0 0 301 301" version="1.1" xmlns="http://www.w3.org/2000/svg" xmlns:xlink="http://www.w3.org/1999/xlink" xml:space="preserve" xmlns:serif="http://www.serif.com/" style="fill-rule:evenodd;clip-rule:evenodd;stroke-linecap:round;stroke-linejoin:round;stroke-miterlimit:1.5;">
    <rect id="_95" serif:id="95" x="0.484" y="0.155" width="300" height="300" style="fill:none;"/>
    <path d="M277.251,149.407C289.349,141.303 300.542,119.259 286.642,99.026C274.576,81.461 249.042,81.625 219.579,95.83C235.941,79.825 189.037,35.938 171.865,71.494C189.037,35.938 114.732,3.52 109.144,58.945C59.967,29.664 42.427,83.258 64.78,106.147C18.956,83.258 -5.848,117.423 16.378,149.683" style="fill:none;stroke:black;stroke-width:12.5px;"/>
    <path d="M67.803,149.218L40.244,198.587L83.783,202.711L65.667,257.168L120.542,188.91L89.448,181.264L107.795,150.8L67.803,149.218Z"/>
    <path d="M210.891,133.583L175.778,170.97L209.754,177.526L169.048,234.767L250.029,171.438L220.475,157.331L243.337,137.119L210.891,133.583Z"/>
    <path d="M266.782,260.351C259.807,271.501 244.731,275.591 244.827,284.955C244.897,291.725 250.651,295.198 256.157,291.945C263.845,287.403 260.502,271.957 266.782,260.351Z"/>
    <path d="M153.661,148.648C146.685,159.799 131.609,163.889 131.705,173.253C131.775,180.022 137.53,183.496 143.035,180.243C150.723,175.7 147.38,160.255 153.661,148.648Z"/>
    <path d="M31.097,169.559C24.122,180.71 9.045,184.8 9.142,194.164C9.212,200.934 14.966,204.407 20.471,201.154C28.16,196.611 24.816,181.166 31.097,169.559Z"/>
    <path d="M39.437,233.521C32.462,244.671 17.385,248.762 17.481,258.126C17.551,264.895 23.306,268.369 28.811,265.116C36.5,260.573 33.156,245.128 39.437,233.521Z"/>
    <path d="M100.33,255.256C93.354,266.406 78.278,270.496 78.374,279.86C78.444,286.63 84.199,290.103 89.704,286.85C97.393,282.308 94.049,266.862 100.33,255.256Z"/>
    <path d="M135.283,211.814C128.308,222.964 113.231,227.054 113.328,236.418C113.398,243.188 119.152,246.661 124.657,243.408C132.346,238.866 129.002,223.42 135.283,211.814Z"/>
    <path d="M177.512,251.303C170.536,262.454 155.46,266.544 155.556,275.908C155.626,282.678 161.381,286.151 166.886,282.898C174.574,278.355 171.231,262.91 177.512,251.303Z"/>
    <path d="M236.445,230.494C229.47,241.644 214.393,245.734 214.49,255.098C214.559,261.868 220.314,265.341 225.819,262.089C233.508,257.546 230.164,242.101 236.445,230.494Z"/>
    <path d="M282.246,209.624C275.27,220.774 260.194,224.865 260.29,234.229C260.36,240.998 266.115,244.472 271.62,241.219C279.309,236.676 275.965,221.231 282.246,209.624Z"/>
    <path d="M252.072,184.558C245.097,195.709 230.02,199.799 230.117,209.163C230.187,215.933 235.941,219.406 241.446,216.153C249.135,211.611 245.791,196.165 252.072,184.558Z"/>
    <path d="M172.097,193.748C165.122,204.899 150.045,208.989 150.142,218.353C150.211,225.122 155.966,228.596 161.471,225.343C169.16,220.8 165.816,205.355 172.097,193.748Z"/>
</svg>
