<?xml version="1.0" encoding="UTF-8" standalone="no"?>
<!DOCTYPE svg PUBLIC "-//W3C//DTD SVG 1.1//EN" "http://www.w3.org/Graphics/SVG/1.1/DTD/svg11.dtd">
<svg width="100%" height="100%" viewBox="0 0 301 301" version="1.1" xmlns="http://www.w3.org/2000/svg" xmlns:xlink="http://www.w3.org/1999/xlink" xml:space="preserve" xmlns:serif="http://www.serif.com/" style="fill-rule:evenodd;clip-rule:evenodd;stroke-linecap:round;stroke-linejoin:round;stroke-miterlimit:1.5;">
    <rect id="_96" serif:id="96" x="0.322" y="0.637" width="300" height="300" style="fill:none;"/>
    <path d="M277.088,149.889C289.186,141.785 300.379,119.74 286.48,99.507C274.414,81.943 248.879,82.107 219.416,96.312C235.778,80.306 188.874,36.42 171.703,71.976C188.874,36.42 114.57,4.001 108.981,59.427C59.804,30.145 42.264,83.739 64.617,106.629C18.793,83.739 -6.011,117.905 16.215,150.164" style="fill:none;stroke:black;stroke-width:12.5px;"/>
    <path d="M67.64,149.7L40.082,199.069L83.62,203.192L65.504,257.65L120.379,189.392L89.286,181.746L107.632,151.281L67.64,149.7Z"/>
    <path d="M210.728,134.064L175.615,171.452L209.591,178.007L168.885,235.248L249.867,171.92L220.312,157.813L243.175,137.6L210.728,134.064Z"/>
    <path d="M132.545,257.873L140.26,274.484L123.648,282.199L115.933,265.588L132.545,257.873Z"/>
    <path d="M282.121,184.719C275.145,195.87 260.069,199.96 260.165,209.324C260.235,216.094 265.99,219.567 271.495,216.314C279.183,211.771 275.84,196.326 282.121,184.719Z"/>
    <path d="M210.947,236.004C203.972,247.154 188.896,251.244 188.992,260.608C189.062,267.378 194.817,270.851 200.322,267.598C208.01,263.056 204.667,247.61 210.947,236.004Z"/>
    <path d="M99.088,250.709C92.113,261.86 77.036,265.95 77.133,275.314C77.202,282.084 82.957,285.557 88.462,282.304C96.151,277.761 92.807,262.316 99.088,250.709Z"/>
    <path d="M42.143,209.011C35.168,220.161 20.092,224.251 20.188,233.615C20.258,240.385 26.013,243.858 31.518,240.606C39.206,236.063 35.863,220.617 42.143,209.011Z"/>
    <path d="M24.459,249.932L32.174,266.543L15.563,274.258L7.848,257.647L24.459,249.932Z"/>
    <path d="M51.219,240.217L39.002,275.375C39.002,275.375 39.963,248.692 31.685,256.671" style="fill:none;stroke:black;stroke-width:2.08px;stroke-linejoin:bevel;"/>
    <path d="M145.033,163.017L152.748,179.628L136.137,187.344L128.422,170.732L145.033,163.017Z"/>
    <path d="M22.51,182.347L30.225,198.959L13.613,206.674L5.898,190.062L22.51,182.347Z"/>
    <path d="M281.101,270.928L288.816,287.539L272.204,295.254L264.489,278.643L281.101,270.928Z"/>
    <path d="M246.783,219.813L232.654,290.355C232.654,290.355 255.397,251.892 268.531,271.577" style="fill:none;stroke:black;stroke-width:2.08px;stroke-linejoin:bevel;"/>
    <path d="M137.459,249.428L150.067,215.956" style="fill:none;stroke:black;stroke-width:2.08px;stroke-linejoin:bevel;"/>
    <path d="M24.842,176.804L34.275,158.285" style="fill:none;stroke:black;stroke-width:2.08px;stroke-linejoin:bevel;"/>
    <path d="M146.665,158.713L156.098,140.194" style="fill:none;stroke:black;stroke-width:2.08px;stroke-linejoin:bevel;"/>
</svg>
